 <svg
    xmlns="http://www.w3.org/2000/svg"
    width="148"
    height="165"
    fill="none"
    >
    <path
        fill="#FFC727"
        d="M80.9841 81.7379c6.4353-11.7356 23.8239-2.2254 17.3792 9.5294-6.4444 11.7547-23.8126 2.2486-17.3792-9.5294Z"
    />
    <path
        fill="#000"
        d="M80.9841 81.7379c6.4353-11.7356 23.8239-2.2254 17.3792 9.5294-6.4444 11.7547-23.8126 2.2486-17.3792-9.5294Z"
        opacity=".1"
    />
    <path
        fill="#FFC727"
        d="M80.3956 82.8412c6.1304-11.1834 23.5234-1.6722 17.3792 9.5294-6.1446 11.2014-23.5188 1.6732-17.3792-9.5294Z"
    />
    <path
        fill="#000"
        d="M86.9845 95.2996c3.3187 1.0439 7.1529.1991 9.3121-3.7396 5.0954-9.2942-9.3352-17.1882-14.4229-7.9082l-.0949.1854c4.9642-8.639 18.5972-1.1045 13.7406 7.7554-.7605 1.5221-2.0327 2.7278-3.5933 3.4056-1.5607.6778-3.3101.7846-4.9416.3014Z"
        opacity=".1"
    />
    <path
        fill="#000"
        d="M83.6713 84.6471c.0477-.0744.123-.1269.2094-.1459.0864-.019.1767-.003.2513.0445l.4645.2977c.5407-.7197 1.2848-1.2606 2.1362-1.5527.0577-.0293.1218-.0436.1865-.0416.0646.002.1277.0202.1835.053.0383.0255.0712.0583.0968.0966.0256.0382.0434.0811.0523.1263.009.0452.0089.0916-.0001.1368-.0091.0451-.0269.088-.0526.1262-.0222.0402-.053.0749-.0901.1019-.0371.027-.0797.0455-.1248.0542-.7311.2314-1.3797.6692-1.8678 1.2606l3.2523 2.0791c1.4971-1.5291 2.6365-1.8507 3.779-1.118 1.2342.7721 1.4396 2.3861.5615 3.8612l.9058.5803c.0366.0235.0682.054.0929.0898.0248.0357.0424.076.0516.1185.0092.0425.01.0864.0023.1292-.0078.0428-.0239.0837-.0474.1202-.0235.0366-.054.0682-.0897.093-.0358.0248-.076.0423-.1186.0516-.0425.0092-.0864.01-.1292.0022-.0428-.0077-.0836-.0238-.1202-.0473l-.93-.5904c-.6954.9261-1.68 1.5937-2.7977 1.8969-.0526.0207-.1093.029-.1657.024-.0563-.0049-.1107-.0229-.1589-.0525-.075-.0511-.1275-.1291-.1468-.2178-.0192-.0887-.0037-.1814.0433-.259.0228-.0398.0537-.0742.0907-.1011.0371-.0269.0794-.0457.1242-.055.9926-.2302 1.8768-.7925 2.5062-1.5938l-3.3128-2.1174c-1.5021 1.5018-2.6021 1.8104-3.7638 1.0686-1.1617-.7418-1.4165-2.3448-.5465-3.7796l-.4413-.2825c-.0701-.0509-.1181-.1266-.1341-.2117-.0161-.0851.001-.1732.0478-.2461Zm4.2576 3.0779-3.1738-2.0266c-.6954 1.1395-.4967 2.317.3395 2.852.8363.5349 1.5148.4457 2.8343-.8254Zm1.0594-.0547 3.1859 2.0448c.7186-1.1768.527-2.3634-.3556-2.9286-.804-.5127-1.5521-.4165-2.8554.8788l.0251.005Z"
        opacity=".1"
    />
    <path
        fill="#FFC727"
        d="M127.493 106.48c10.013.994 8.555 15.826-1.473 14.829-10.028-.997-8.555-15.826 1.473-14.829Z"
    />
    <path
        fill="#000"
        d="M127.493 106.48c10.013.994 8.555 15.826-1.473 14.829-10.028-.997-8.555-15.826 1.473-14.829Z"
        opacity=".1"
    />
    <path
        fill="#FFC727"
        d="M126.552 106.385c9.546.947 8.088 15.779-1.473 14.83-9.56-.95-8.082-15.778 1.473-14.83Z"
    />
    <path
        fill="#000"
        d="M119.878 114.613c.086 1.386.676 2.694 1.659 3.675.983.982 2.291 1.57 3.677 1.654 7.931.79 9.13-11.525 1.225-12.311-.051-.01-.101-.02-.152-.03 7.439.891 6.243 12.541-1.319 11.793-1.275-.073-2.483-.591-3.414-1.466-.931-.874-1.524-2.047-1.676-3.315Z"
        opacity=".1"
    />
    <path
        fill="#000"
        d="M126.273 109.187c.065.011.123.048.161.102.038.053.054.12.043.185l-.08.403c.656.165 1.249.521 1.702 1.024.039.03.068.069.087.114.018.045.025.094.019.143-.006.034-.019.067-.038.096-.019.029-.044.054-.073.074-.028.02-.061.033-.095.04-.034.007-.07.007-.104 0-.034-.003-.067-.014-.097-.031s-.056-.039-.077-.067c-.373-.441-.868-.763-1.424-.925l-.476 2.866c1.497.589 2.055 1.283 1.886 2.282-.182 1.086-1.217 1.701-2.503 1.526l-.135.802c-.014.066-.053.125-.11.163-.057.038-.126.051-.193.038-.067-.014-.125-.053-.163-.11-.038-.056-.052-.126-.038-.193l.162-.806c-.847-.205-1.599-.691-2.135-1.378-.031-.029-.055-.065-.068-.105-.014-.04-.018-.083-.012-.126.014-.066.052-.126.108-.165.056-.04.124-.057.192-.047.034.005.067.017.097.034.03.018.056.041.076.069.453.619 1.103 1.066 1.843 1.266l.486-2.916c-1.454-.591-2.016-1.265-1.842-2.289.174-1.024 1.206-1.671 2.455-1.494l.077-.383c.013-.06.048-.113.097-.148.05-.036.111-.051.172-.044Zm-.878 3.85.467-2.795c-.993-.147-1.745.336-1.873 1.076-.127.74.14 1.181 1.406 1.719Zm.347.698-.473 2.826c1.019.147 1.792-.333 1.922-1.109.129-.776-.169-1.197-1.453-1.696l.004-.021Z"
        opacity=".1"
    />
    <path
        fill="#FFC727"
        d="M9.76583 117.362c.65047 9.997 15.48147 9.059 14.80877-.958-.6726-10.018-15.46126-9.055-14.80877.958Z"
    />
    <path
        fill="#000"
        d="M9.76583 117.362c.65047 9.997 15.48147 9.059 14.80877-.958-.6726-10.018-15.46126-9.055-14.80877.958Z"
        opacity=".1"
    />
    <path
        fill="#FFC727"
        d="M9.70307 116.422c.61863 9.529 15.40923 8.583 14.81183-.974-.5974-9.556-15.42841-8.566-14.81183.974Z"
    />
    <path
        fill="#000"
        d="M18.8034 121.882c1.3558-.278 2.5625-1.043 3.3918-2.151.8292-1.108 1.2234-2.481 1.1077-3.86-.3517-7.935-12.6754-7.369-12.2995.55l.006.153c-.1807-7.455 11.4715-7.941 11.8094-.381.1051 1.269-.2397 2.534-.9738 3.574s-1.8109 1.789-3.0416 2.115Z"
        opacity=".1"
    />
    <path
        fill="#000"
        d="M12.5367 116.356c.0039-.065.0329-.127.0809-.172.0481-.045.1116-.07.1774-.069l.4122.009c.0633-.671.33-1.307.7645-1.823.0243-.042.059-.077.1006-.102.0417-.024.089-.038.1375-.039.0701.004.136.034.1835.086.0475.052.0727.12.0703.19.0007.035-.006.069-.0196.101-.0136.031-.0338.06-.0592.083-.3786.433-.6241.966-.7068 1.536l2.893.056c.3661-1.562.9684-2.212 1.9805-2.187 1.0957.026 1.852.959 1.8651 2.252l.8034.019c.0691.003.1346.032.182.082.0474.051.0729.118.0708.187-.002.069-.0315.134-.0818.182-.0503.047-.1174.073-.1865.071l-.8145-.017c-.087.862-.4578 1.671-1.0542 2.299-.0252.035-.0585.063-.097.082-.0385.018-.081.028-.1238.026-.0673-.005-.1301-.035-.1764-.084-.0464-.049-.0729-.114-.0744-.181.0016-.069.0298-.135.0788-.184.5603-.532.918-1.242 1.0116-2.009l-2.9435-.067c-.3721 1.54-.9593 2.167-2.0026 2.141-1.0433-.026-1.8308-.934-1.843-2.205l-.3961-.012c-.0633-.004-.1225-.033-.1656-.08-.0431-.046-.0671-.107-.0671-.171Zm3.921.316-2.8224-.043c-.0018 1.001.5783 1.689 1.3273 1.693.7489.003 1.1453-.326 1.4951-1.65Zm.6143-.448 2.8527.048c.0058-1.047-.5783-1.715-1.3656-1.737-.7872-.021-1.1313.36-1.4619 1.694l-.0252-.005Z"
        opacity=".1"
    />
    <path
        fill="#FFC727"
        d="M92.626 149.21c6.9418 7.203 17.63-3.076 10.669-10.288-6.961-7.212-17.635 3.075-10.669 10.288Z"
    />
    <path
        fill="#000"
        d="M92.626 149.21c6.9418 7.203 17.63-3.076 10.669-10.288-6.961-7.212-17.635 3.075-10.669 10.288Z"
        opacity=".1"
    />
    <path
        fill="#FFC727"
        d="M91.9753 148.534c6.6216 6.866 17.2997-3.415 10.6687-10.288-6.6302-6.873-17.2992 3.415-10.6687 10.288Z"
    />
    <path
        fill="#000"
        d="M102.437 146.823c.855-1.088 1.281-2.451 1.198-3.832-.084-1.381-.67-2.683-1.649-3.661-5.3933-5.801-14.4056 2.555-9.0191 8.365l.1088.111c-4.9532-5.566 3.6151-13.461 8.7563-7.914.897.901 1.45 2.088 1.561 3.356.11 1.267-.228 2.532-.956 3.575Z"
        opacity=".1"
    />
    <path
        fill="#000"
        d="M94.0937 146.653c-.04-.051-.0585-.116-.0515-.18.007-.064.039-.123.089-.164l.3198-.261c-.3812-.556-.5888-1.212-.5963-1.887-.0082-.047-.0039-.096.0126-.141.0164-.046.0445-.086.0813-.118.0273-.021.0585-.036.0917-.045.0333-.009.068-.011.1022-.007.0341.004.0671.016.097.033.0298.017.056.04.077.067.0242.025.0423.055.0529.088.0107.033.0136.068.0085.103-.0092.573.1491 1.137.4554 1.622l2.2473-1.819c-.7307-1.426-.6897-2.309.093-2.943.7827-.635 2.0326-.462 2.8744.514l.627-.508c.051-.042.116-.061.182-.053.065.007.125.04.166.091.041.052.06.117.053.183-.007.065-.04.125-.091.166l-.628.514c.492.712.732 1.568.681 2.432.005.056-.007.111-.036.159-.028.048-.071.085-.123.106-.051.021-.108.024-.162.01-.054-.014-.101-.045-.136-.088-.022-.026-.039-.057-.05-.089-.01-.033-.014-.068-.011-.102.073-.758-.116-1.518-.5379-2.153l-2.2847 1.848c.7106 1.422.6706 2.274-.1313 2.926-.8019.651-1.9982.448-2.817-.514l-.3016.249c-.0522.042-.1188.061-.1851.054-.0663-.008-.127-.041-.1687-.093Zm3.1912-2.29-2.1908 1.772c.6435.764 1.5274.905 2.1064.423.579-.481.6701-.961.0844-2.195Zm.2022-.746 2.216-1.794c-.6697-.789-1.5526-.935-2.1669-.435-.6143.501-.6611.995-.0491 2.229Z"
        opacity=".1"
    />
    <path
        fill="#95A3AA"
        d="M102.743 108.147c-9.557-1.227-14.7445 11.944-24.3007 10.712.0487-2.192.0706-4.459.0657-6.802 7.2624-.686 12.0846-9.427 19.1761-10.698 1.6425 2.107 3.3279 4.365 5.0589 6.788Z"
    />
    <path
        fill="#37474F"
        d="M92.2305 108.076c.5636 1.161-.3462 3.107-2.0095 4.472-1.6633 1.364-3.3124 1.301-3.6641-.028-.3518-1.329.571-3.262 2.0154-4.45 1.4445-1.189 3.0896-1.183 3.6582.006Zm-7.6362 5.549c-.0084.218-.0788.429-.2031.608-.1242.18-.2971.32-.4982.405-.4559.233-.8671.14-.9122-.184.0199-.211.0974-.413.2241-.584.1267-.17.2977-.303.4944-.383.4377-.221.8328-.179.895.138Zm11.1027-7.904c.1631.258-.0761.64-.5289.884-.4528.245-.9276.26-1.0746-.001-.147-.26.0751-.687.5098-.946.4346-.259.9265-.202 1.0937.063Zm-16.5337 6.231c.0647 2.394.1093 4.722.1337 6.984-.2802-.014-.5685-.04-.8547-.077.0487-2.192.0706-4.459.0657-6.802.2228-.039.4386-.069.6553-.105Zm23.5797-3.805c-.282-.056-.574-.063-.855-.072-1.655-2.335-3.2862-4.524-4.841-6.597.2097-.053.4234-.099.6412-.139 1.6384 2.127 3.3238 4.385 5.0548 6.808Z"
    />
    <path
        fill="#37474F"
        d="M102.415 107.693c.112.149.217.301.328.454-9.557-1.227-14.7445 11.944-24.3008 10.712l.0044-.413c9.4042 1.076 14.5864-11.782 23.9684-10.753Zm-4.7268-6.354c.1037.136.2085.267.3071.403-7.2285 1.169-12.0841 10.155-19.4826 10.735l-.0006-.44c7.2624-.686 12.0846-9.427 19.1761-10.698Z"
    />
    <path
        fill="#37474F"
        d="M81.0786 118.392c-.5901.092-1.1873.13-1.7843.114l-.0133-.952c.9808-.002 1.7577.28 1.7976.838Zm19.8124-11.723.688.956c-.598-.014-1.197.029-1.787.129-.3433-.483.1218-1.05 1.099-1.085Zm-4.9404-4.379c.4553-.171.9215-.312 1.3955-.422l.6616.883c-.8267.148-1.7258.004-2.0571-.461Zm-16.7521 11.106-.0204-.995c.4808-.072.9558-.178 1.4216-.317.0449.559-.5634 1.213-1.4012 1.312Z"
    />
    <path
        fill="#455A64"
        d="M88.8119 108.574c.0736-.053.1482-.059.1643-.009l.0583.153c.3172-.247.6833-.423 1.074-.518.0605-.014.0968-.012.1109.022.0042.041-.0033.082-.0218.118-.0184.036-.047.066-.0822.087-.0295.028-.0661.048-.1059.057-.3324.068-.6455.21-.9166.414l.4023 1.077c.9017-.574 1.3574-.651 1.5143-.284.157.368-.2196 1.094-.971 1.703l.1126.301c.0222.046-.0283.141-.104.204-.0756.064-.1613.073-.1784.027l-.1106-.31c-.4207.339-.9171.572-1.4471.679-.0453-.009-.0806-.016-.0957-.019-.0001-.042.0105-.084.0308-.121.0203-.037.0496-.069.0853-.092.0302-.029.069-.049.1109-.056.4612-.075.8952-.268 1.2605-.56l-.4034-1.098c-.8926.555-1.3129.612-1.4417.235-.1287-.377.2549-1.086.9105-1.636l-.0553-.142c-.0151-.082.0294-.173.099-.232Zm.4191 1.568-.3853-1.058c-.5194.42-.798.946-.7025 1.227.0955.282.3234.296 1.0878-.169Zm.3346.03.4004 1.061c.579-.481.8727-1.004.752-1.291-.1207-.286-.3728-.258-1.1503.22l-.0021.01Z"
    />
    <path
        fill="#95A3AA"
        d="M45.2168 102.714c-8.6338-3.9989-11.9652 6.142-20.6261 2.149.9977-1.33 1.7449-2.83 2.2049-4.428 5.755-.149 9.2365-6.3129 16.2541-3.1684l2.1671 5.4474Z"
    />
    <path
        fill="#37474F"
        d="M37.0046 99.7226c.1554 1.0794-.8436 2.4254-2.202 3.1334-1.3584.707-2.4507.247-2.4327-.94.0629-.674.2915-1.323.6657-1.888.3742-.5655.8822-1.0293 1.4789-1.3507 1.198-.5878 2.3448-.0324 2.4901 1.0453Zm-6.1713 2.7194c-.0402.168-.1264.323-.2491.445-.1228.123-.2772.209-.446.248-.367.105-.6461-.045-.6106-.3.0543-.161.1475-.306.2715-.422.1239-.116.2746-.2.4386-.243.3529-.113.6139-.003.5956.272Zm9.207-3.4258c.0583.2319-.2211.4222-.6172.4633-.3962.041-.7429-.0863-.7891-.3263-.0462-.2399.207-.4826.5931-.5257.1593-.0295.3238-.0078.4699.0621.1461.0698.2663.1842.3433.3266Zm-12.7275 1.3758c-.4214 1.678-1.0766 3.289-1.9462 4.784-.2529-.098-.5139-.208-.7729-.328.9978-1.33 1.745-2.83 2.205-4.428.1734-.002.3488-.014.5141-.028Zm17.904 2.322c-.264-.121-.52-.231-.7739-.323l-2.022-5.387c.2096.0788.4172.1677.6288.2626l2.1671 5.4474Z"
    />
    <path
        fill="#37474F"
        d="m45.0809 102.372.1359.342c-8.6338-3.9989-11.9652 6.142-20.6261 2.149l.1674-.208c8.4315 3.623 11.7687-6.2342 20.3228-2.283Zm-2.0312-5.1054.1358.3419c-7.1022-3.193-10.5969 3.1675-16.503 3.1555l.1162-.344c5.7519-.134 9.2334-6.2978 16.251-3.1534Z"
    />
    <path
        fill="#37474F"
        d="M27.0832 105.348c-.5351-.094-1.0616-.231-1.5743-.411.109-.177.215-.365.312-.561.8546.235 1.3886.604 1.2623.972Zm16.9442-4.047.2796.748c-.5171-.201-1.051-.355-1.5954-.462-.1226-.408.43-.627 1.3158-.286Zm-2.7939-4.3624c.457.1048.906.2423 1.3434.4113l.2796.7482c-.8142-.3051-1.5135-.7653-1.623-1.1595ZM26.9783 101.51l.2364-.76c.3775-.028.7531-.076 1.1251-.146-.0975.278-.2832.518-.5289.681-.2457.164-.538.243-.8326.225Z"
    />
    <path
        fill="#455A64"
        d="M34.5938 99.1703c.0524-.0262.1069-.01.1109.0223l.013.1441c.2544-.1195.5381-.1627.8166-.1243.0453.0091.0705.0141.0735.0514-.0025.0313-.0139.0612-.0329.0862-.0189.025-.0446.044-.0741.0549-.0267.0136-.057.0185-.0867.014-.2347-.0356-.4747-.0058-.6936.0862l.0759 1.0059c.7118-.229 1.0333-.159 1.0744.184.0411.344-.3615.835-.9605 1.155l.0219.282c-.0034.032-.0152.062-.0342.088-.019.026-.0444.046-.0738.058-.0635.029-.1189.018-.1209-.024l-.0209-.287c-.3345.172-.7136.239-1.0869.19-.0352-.007-.0554-.011-.0584-.048.0069-.033.0207-.063.0406-.09.0198-.027.0452-.049.0744-.065.0269-.014.0571-.018.0868-.014.3206.053.6498.003.9406-.142l-.0759-1.032c-.6916.233-.9839.175-1.0078-.202.0414-.25.1457-.486.3029-.6841.1573-.1986.3624-.354.5961-.4516l-.009-.1381c-.01-.0283.0495-.0897.108-.1199Zm-.0021 1.4207-.0698-.9843c-.179.0675-.3371.1806-.4587.3282-.1216.1471-.2025.3241-.2345.5131.0119.254.1641.332.763.143Zm.2166.122.0779.996c.475-.251.7666-.606.7416-.874-.025-.267-.2085-.319-.8195-.122Z"
    />
    <path
        fill="#95A3AA"
        d="M98.6883 137.557c-8.6328-4.004-11.9641 6.137-20.6261 2.149.9974-1.328 1.7443-2.827 2.204-4.423 5.757-.159 9.2495-6.3 16.252-3.158l2.1701 5.432Z"
    />
    <path
        fill="#37474F"
        d="M90.4913 134.569c.1554 1.079-.8426 2.42-2.201 3.128-1.3584.707-2.4507.247-2.4327-.94.0622-.674.29-1.323.6633-1.888.3732-.565.8804-1.03 1.4763-1.352 1.1869-.585 2.3346-.034 2.4941 1.052Zm-6.1855 2.71c-.0396.169-.1256.324-.2485.447-.1228.122-.2775.208-.4465.247-.367.105-.6462-.045-.6107-.3.0549-.16.1483-.304.272-.419.1237-.115.2739-.198.4372-.241.3539-.118.6199-.007.5965.266Zm9.2071-3.425c.0583.232-.2211.422-.6183.468-.3972.046-.7419-.091-.788-.331-.0462-.24.207-.483.5921-.521.1589-.031.3238-.011.4705.058.1466.069.2671.183.3437.326Zm-12.7225 1.377c-.423 1.678-1.0798 3.288-1.9512 4.783-.253-.098-.4848-.197-.773-.328.9975-1.328 1.7444-2.827 2.204-4.423.1744-.007.3488-.014.5202-.032Zm17.8979 2.326c-.258-.126-.52-.231-.7729-.329l-2.0169-5.385c.2045.078.4121.167.6237.262l2.1661 5.452Z"
    />
    <path
        fill="#37474F"
        d="m98.5535 137.21.1348.347c-8.6328-4.004-11.9641 6.137-20.6261 2.149l.1665-.203c8.4405 3.63 11.7756-6.243 20.3248-2.293Zm-2.0313-5.105.1359.341c-7.1022-3.193-10.597 3.167-16.503 3.156l.1151-.339c5.7571-.16 9.2496-6.3 16.252-3.158Z"
    />
    <path
        fill="#37474F"
        d="M80.5557 140.186c-.534-.091-1.059-.228-1.5692-.41.104-.178.21-.367.3119-.561.8496.233 1.3856.593 1.2573.971ZM97.51 136.14l.2797.749c-.518-.199-1.0517-.353-1.5954-.462-.1277-.409.4249-.628 1.3157-.287Zm-2.8292-4.369c.457.105.906.243 1.3434.412l.2797.748c-.7891-.3-1.4914-.745-1.6231-1.16Zm-14.2259 4.583.2324-.766c.378-.022.754-.071 1.1251-.146-.0977.278-.2827.517-.5273.681-.2447.165-.5359.246-.8302.231Z"
    />
    <path
        fill="#455A64"
        d="M88.0654 134.013c.0585-.03.1078-.015.1108.022l.013.145c.2552-.117.5382-.161.8166-.125.0454.009.0706.014.0736.052-.0026.031-.014.061-.0329.086-.019.025-.0447.044-.0741.055-.026.015-.0571.02-.0867.014-.2347-.036-.4747-.006-.6936.086l.0809 1.007c.7068-.23 1.0333-.159 1.0694.183.036.343-.3616.835-.9606 1.155l.022.282c-.0034.032-.0152.062-.0342.088-.019.025-.0445.046-.0738.058-.0635.029-.119.018-.1209-.024l-.021-.287c-.3349.172-.7138.24-1.0878.195-.0353-.007-.0554-.011-.0574-.053.0064-.032.02-.062.0397-.088.0198-.026.0452-.048.0743-.062.0263-.016.0572-.023.0877-.019.3206.053.6498.003.9406-.142l-.0707-1.031c-.6968.232-.9891.174-1.0079-.202.0407-.25.1447-.485.3019-.683.1572-.197.3624-.352.5961-.448l-.009-.138c.0054-.028.0177-.054.0359-.076.0181-.022.0415-.039.0681-.05Zm-.0021 1.42-.0688-.988c-.1784.069-.3359.184-.4575.332-.1215.148-.203.325-.2367.514.0179.25.165.326.763.142Zm.2176.118.0779.996c.4749-.251.7655-.602.7466-.899-.0189-.297-.2135-.295-.8245-.097Z"
    />
    <path
        fill="#95A3AA"
        d="M153.45 116.631c-12.101-.726-11.308 12.817-23.396 12.078.557-1.676.695-3.824.56-6.262 6.731-2.843 8.021-11.748 17.763-11.281 1.685 1.824 3.376 3.646 5.073 5.465Z"
    />
    <path
        fill="#37474F"
        d="M142.365 116.901c.68 1.185.128 3.255-1.131 4.721-1.259 1.467-2.788 1.428-3.333.018-.243-.828-.276-1.704-.096-2.548.179-.845.566-1.631 1.125-2.289 1.126-1.221 2.74-1.112 3.435.098Zm-6.059 6.075c.03.219-.001.442-.09.644-.089.203-.231.377-.412.503-.39.294-.784.246-.861-.073-.01-.215.033-.428.126-.622.093-.193.232-.361.406-.488.359-.3.73-.293.831.036Zm9.3-8.324c.181.246-.064.606-.509.836-.444.231-.913.242-1.086-.019-.174-.26.025-.676.457-.893.174-.109.377-.16.581-.147.205.014.4.092.557.223Zm-14.416 7.538c.279 2.181.249 4.39-.091 6.561-.35.004-.698-.003-1.044-.021.557-1.675.694-3.818.56-6.262.181-.09.383-.18.575-.278Zm22.26-5.559c-.367-.027-.722-.035-1.043-.026l-4.891-5.433c.279 0 .567.005.862.016 1.684 1.809 3.375 3.624 5.072 5.443Z"
    />
    <path
        fill="#37474F"
        d="M153.131 116.289c.109.111.211.226.319.342-12.101-.726-11.308 12.817-23.396 12.078l.102-.325c11.655.416 11.022-12.802 22.975-12.095Zm-4.773-5.105.319.342c-9.865-.477-11.073 8.67-18.063 11.393l-.019-.455c6.744-2.856 8.006-11.751 17.763-11.28Z"
    />
    <path
        fill="#37474F"
        d="M133.216 128.159c-.676.138-1.362.22-2.052.244.053-.262.101-.504.11-.807 1.115-.122 1.918.055 1.942.563Zm12.805-16.511c.59-.088 1.186-.133 1.783-.135l.677.754c-1.072.011-2.105-.197-2.46-.619Zm-14.708 12.019-.08-1.012c.438-.202.862-.434 1.267-.695.014.375-.094.744-.308 1.052-.214.308-.523.538-.879.655Z"
    />
    <path
        fill="#455A64"
        d="M139.231 117.367c.06-.062.123-.065.149-.012l.082.168c.249-.258.565-.442.913-.529.046.009.081.016.111.022.013.038.016.078.008.117-.008.039-.026.075-.052.105-.023.03-.057.049-.095.054-.295.068-.565.215-.783.425l.559 1.161c.735-.608 1.152-.671 1.352-.285.2.387-.038 1.157-.594 1.81l.155.325c.012.039.015.08.007.119-.008.04-.026.077-.053.108-.06.066-.131.078-.157.026l-.159-.331c-.317.357-.733.611-1.195.73-.04-.008-.071-.014-.091-.018-.012-.04-.014-.083-.006-.124.009-.042.027-.08.054-.113.023-.031.057-.052.096-.059.402-.087.768-.298 1.043-.603l-.563-1.188c-.717.595-1.087.662-1.274.232-.186-.431.028-1.18.537-1.759l-.078-.157c-.016-.037-.021-.078-.015-.117.006-.04.023-.077.049-.107Zm.664 1.68-.538-1.157c-.178.165-.31.374-.384.605-.074.231-.088.478-.039.715.121.313.337.335.961-.163Zm.307.062.549 1.158c.45-.518.629-1.069.471-1.378-.158-.31-.382-.318-1.015.199l-.005.021Z"
    />
    <path
        fill="#95A3AA"
        d="M104.453 131.17c9.931 5.03 10.511 17.314 20.442 22.344-3.041 1.221-5.996 2.387-8.865 3.499-6.851-5.045-8.621-14.035-15.366-19.164 1.34-2.29 2.611-4.52 3.789-6.679Z"
    />
    <path
        fill="#37474F"
        d="M109.522 141.567c1.114-1.087 3.034-.439 4.209 1.543 1.175 1.981 1.158 4.18-.11 5.01-1.268.831-3.179.169-4.21-1.537-1.031-1.707-.992-3.937.111-5.016Zm5.404 8.724c.308-.174.839.053 1.205.499.367.445.424.918.1 1.068-.23.057-.471.041-.692-.043-.221-.085-.411-.235-.544-.431-.342-.414-.361-.916-.069-1.093Zm-8.294-12.272c.223-.275.722-.148 1.085.292.362.439.453 1.034.215 1.301-.237.267-.704.115-1.053-.316-.348-.432-.47-1.002-.247-1.277Zm8.789 18.526c2.816-1.126 5.683-2.298 8.601-3.516.282.167.575.325.875.475-3.041 1.221-5.995 2.387-8.86 3.5-.211-.152-.412-.298-.616-.459Zm-10.968-25.375c.301.155.594.313.88.476-1.289 2.187-2.645 4.414-4.068 6.68-.197-.166-.396-.326-.601-.478 1.34-2.289 2.611-4.519 3.789-6.678Z"
    />
    <path
        fill="#37474F"
        d="m104.229 131.581.224-.411c9.931 5.03 10.511 17.314 20.442 22.344l-.571.231c-9.712-5.048-10.394-17.107-20.095-22.164Zm-3.58 6.264.254-.431c6.914 5.148 8.658 14.321 15.66 19.397l-.567.211c-6.824-5.045-8.587-14.044-15.347-19.177Z"
    />
    <path
        fill="#37474F"
        d="M121.732 152.087c.555.426 1.134.821 1.734 1.182l-1.212.501c-.969-.609-1.143-1.409-.522-1.683Zm-17.19-19.116.551-.938c.601.359 1.18.753 1.734 1.181-.354.532-1.322.369-2.285-.243Zm-1.741 6.062c-.404-.391-.826-.769-1.272-1.131l.585-.931c.78.581 1.048 1.542.687 2.062Zm14.331 16.823-1.18.497c-.453-.353-.881-.701-1.286-1.113.619-.29 1.677.027 2.466.616Z"
    />
    <path
        fill="#455A64"
        d="M109.917 146.124c-.051-.084-.051-.189-.002-.226l.146-.123c-.229-.417-.376-.873-.433-1.345-.01-.081-.01-.133.033-.161.042-.029.137-.004.192.085.027.041.043.087.046.136.043.406.161.801.348 1.165l1.034-.841c-.49-1.11-.553-1.684-.197-2.021.356-.337 1.042.031 1.574.882l.288-.235c.05-.038.131.026.191.095.059.07.059.201.01.238l-.294.235c.318.561.514 1.183.577 1.825.008.023.009.048.004.072-.004.023-.015.046-.031.064-.053.031-.146-.029-.204-.104-.028-.042-.044-.09-.046-.14-.04-.559-.201-1.103-.471-1.594l-1.059.836c.478 1.092.518 1.676.135 1.935-.382.259-1.037-.056-1.506-.827l-.138.114c-.066.066-.134.015-.197-.065Zm1.501-.999-1.024.843c.403.605.876.857 1.134.647.257-.211.289-.529-.11-1.49Zm.053-.472 1.024-.843c-.424-.683-.907-.942-1.185-.704-.279.237-.261.592.161 1.547Z"
    />
    <path
        fill="#95A3AA"
        d="M60.1541 112.812c3.4465 10.302-12.8301 23.112-8.3754 33.302-3.5769-1.447-6.9784-3.295-10.1396-5.507 2.0281-9.029 12.1314-19.059 8.4907-27.323 3.3555-.158 6.697-.316 10.0243-.472Z"
    />
    <path
        fill="#37474F"
        d="M54.0571 123.75c1.5964.352 1.8305 2.737.4092 5.325-1.4214 2.587-3.5354 4.134-4.8846 3.439-1.3493-.696-1.4109-3.104-.2489-5.366 1.162-2.262 3.15-3.756 4.7243-3.398Zm-6.0401 11.595c.3144.184.3511.862.0855 1.506s-.6832 1.001-1.0147.798c-.3315-.203-.4025-.868-.1339-1.5.2686-.633.7598-.991 1.0631-.804Zm7.4795-16.753c.4072.035.6457.57.4819 1.203-.1638.633-.6429 1.114-1.031 1.062-.3881-.052-.5398-.601-.4003-1.218.1396-.617.5462-1.075.9494-1.047Zm-13.6511 21.197c2.9952 2.132 6.2083 3.941 9.5852 5.395.1104.31.2367.613.3783.91-3.5775-1.446-6.9792-3.293-10.1396-5.507.0295-.251.1002-.525.1761-.798Zm18.3087-26.977c.1059.309.1931.624.2614.943-3.3105.091-6.6411.185-9.9919.285-.0852-.257-.1832-.509-.2938-.756 3.3556-.158 6.697-.316 10.0243-.472Z"
    />
    <path
        fill="#37474F"
        d="M59.5351 112.839c.2067-.01.4174-.015.624-.026 3.4466 10.302-12.8301 23.112-8.3754 33.302-.262-.105-.523-.215-.7779-.329-3.8751-10.126 11.9901-22.768 8.5293-32.947Zm-9.4053.445.6351-.03c3.6335 8.405-6.8308 18.613-8.6059 27.714-.1754-.119-.3507-.238-.5199-.361 2.023-9.004 12.1283-19.043 8.4907-27.323Z"
    />
    <path
        fill="#37474F"
        d="M50.3811 142.761c.0243.708.1276 1.411.3079 2.096-.5291-.237-1.041-.482-1.5377-.723-.1514-1.126.5033-1.75 1.2298-1.373Zm8.0263-28.953 1.3861-.036c.1526.69.2308 1.395.2332 2.102-.7479-.009-1.345-.952-1.6193-2.066Zm-6.96 1.947c-.077-.589-.2079-1.169-.3908-1.735.4637-.011.9284-.028 1.3921-.04.3017.978-.2483 1.785-1.0013 1.775Zm-7.9619 25.16c-.3939-.257-.7717-.517-1.1485-.755.1543-.612.3413-1.23.5609-1.853.5672.386.7699 1.57.5876 2.608Z"
    />
    <path
        fill="#455A64"
        d="M49.9838 127.378c.0585-.109.1523-.184.2108-.162.0584.022.1209.024.1814.063.2854-.518.647-.99 1.0726-1.4.0706-.064.1201-.101.1644-.087.0443.014.0664.139.0109.259-.0272.055-.0657.105-.113.145-.3694.343-.6857.738-.9384 1.174l1.2456.455c.8457-1.288 1.3783-1.773 1.8379-1.634.4595.14.4195 1.07-.1792 2.224.121.024.2349.084.3467.127.1119.044.0503.141-.0113.265-.0616.124-.1665.203-.2249.181l-.3507-.134c-.397.709-.9095 1.347-1.5166 1.887-.0625.051-.1038.074-.1431.061-.0393-.014-.0513-.163.0133-.276.0271-.057.066-.108.114-.15.5399-.456.9958-1.003 1.347-1.617-.4192-.157-.8385-.315-1.2567-.477-.8467 1.266-1.3914 1.707-1.8045 1.519-.4132-.187-.3591-1.084.1639-2.121-.0554-.012-.1159-.024-.1713-.035-.0555-.011-.0533-.178.0012-.267Zm1.582.842-1.2073-.463c-.418.829-.4649 1.48-.1515 1.616.3134.136.6322-.119 1.3669-1.193l-.0081.04Zm.477-.287c.4061.145.8153.3 1.2204.45.4785-.921.5203-1.6.1747-1.706-.3457-.106-.6553.104-1.387 1.216l-.0081.04Z"
    />
    <path
        fill="#37474F"
        d="M122.75 127.174s1.827-20.351 23.637-23.563c.002-.01-3.61 20.088-23.637 23.563Zm-27.2579-26.307s-9.3587-18.1684 7.3319-32.5684c.007-.0353 7.719 18.8926-7.3319 32.5684Zm-59.5013 31.004s3.7151-16.229 21.6734-16.424c0 0-5.1281 15.825-21.6734 16.424Z"
    />
    <path
        fill="#95A3AA"
        d="M122.668 127.399s-13.681-10.192-6.453-27.047c0 0 12.684 11.318 6.453 27.047Zm-80.22-27.6843s-15.5577-6.904-12.2353-24.9635c0 0 14.8692 8.2442 12.2353 24.9635Z"
    />
    <path
        fill="#37474F"
        d="M50.7591 106.39s-7.1894-8.9718.4128-18.7902c-.002.0101 6.3603 9.5762-.4128 18.7902Zm36.0269 38.145s3.2384-11.035 15.635-10.423c.025.005-4.2181 10.692-15.635 10.423Z"
    />
    <path
        fill="#37474F"
        d="M102.167 163.519s-10.9807-13.953.884-28.997c0 0 9.699 14.855-.884 28.997Zm-38.9327-73.67s15.8556-7.9986 28.2441 6.6205c0 0-16.4865 6.5715-28.2441-6.6205Z"
    />
    <path
        fill="#FFC727"
        d="M103.467 106.19c4.417 7.369 10.416 13.664 17.562 18.432 1.089.69 1.734 1.024 1.734 1.024l.105-.026c.018.005.037.009.056.011 24.197-5.102 38.819-4.22 48.631-2.172l-1.672 8.325c-8.609-3.128-32.287-3.689-42.098-1.433-7.56 1.748-16.179 4.856-24.587 4.405l-.311-.015c-.244-.013-.487-.03-.73-.047-1.234-.084-2.4704-.203-3.7082-.357-8.5717-1.008-16.8042-3.942-24.0803-8.584-7.6261-4.892-12.1506-8.207-16.7619-10.15-.1209-.05-.2418-.101-.3587-.145-7.0772-2.874-14.5521-2.54-33.8602.278-2.8188.409-2.7516-.5-.7942-1.476 1.9573-.975 23.4638-4.871 29.1047-4.714 0 0-6.3069-5.77-9.3127-9.8595-1.0039-1.3707-1.6361-2.5567-1.5448-3.2723.3397-2.5531.6164-1.9733 1.9144-.2132.1612.2158.3333.4548.5297.704 1.775 2.2757 3.6928 4.436 5.7418 6.469.7484.737 1.518 1.474 2.3017 2.192 12.8785 11.866 30.274 19.904 40.0014 22.712 17.4783 5.015 26.5803-.917 26.5803-.917s-11.421-11.29-15.741-18.024c-4.3205-6.734-11.8302-12.1526-19.7667-10.6164-2.1051.4056-2.7066-.0193-2.2585-.658.8659-1.2574 5.7756-3.3594 11.2691-1.6324.9771.3077 1.9194.7165 2.8115 1.2199.9449.5334 1.8342 1.1599 2.6547 1.87.4605.3996.9006.8219 1.3186 1.2659 0 0 .008-1.2145.1807-2.9623.3942-3.9996 1.6426-10.7898 5.5896-12.1728l.236-.0784c5.098-1.6553-8.3603 7.7211-.737 20.6175Z"
    />
    <path
        fill="#000"
        d="M103.467 106.19c4.417 7.369 10.416 13.664 17.562 18.432 1.089.69 1.734 1.024 1.734 1.024l.105-.026c.018.005.037.009.056.011 24.197-5.102 38.819-4.22 48.631-2.172l-1.672 8.325c-8.609-3.128-32.287-3.689-42.098-1.433-7.56 1.748-16.179 4.856-24.587 4.405l-.311-.015c-.244-.013-.487-.03-.73-.047-1.234-.084-2.4704-.203-3.7082-.357-8.5717-1.008-16.8042-3.942-24.0803-8.584-7.6261-4.892-12.1506-8.207-16.7619-10.15-.1209-.05-.2418-.101-.3587-.145-7.0772-2.874-14.5521-2.54-33.8602.278-2.8188.409-2.7516-.5-.7942-1.476 1.9573-.975 23.4638-4.871 29.1047-4.714 0 0-6.3069-5.77-9.3127-9.8595-1.0039-1.3707-1.6361-2.5567-1.5448-3.2723.3397-2.5531.6164-1.9733 1.9144-.2132.1612.2158.3333.4548.5297.704 1.775 2.2757 3.6928 4.436 5.7418 6.469.7484.737 1.518 1.474 2.3017 2.192 12.8785 11.866 30.274 19.904 40.0014 22.712 17.4783 5.015 26.5803-.917 26.5803-.917s-11.421-11.29-15.741-18.024c-4.3205-6.734-11.8302-12.1526-19.7667-10.6164-2.1051.4056-2.7066-.0193-2.2585-.658.8659-1.2574 5.7756-3.3594 11.2691-1.6324.9771.3077 1.9194.7165 2.8115 1.2199.9449.5334 1.8342 1.1599 2.6547 1.87.4605.3996.9006.8219 1.3186 1.2659 0 0 .008-1.2145.1807-2.9623.3942-3.9996 1.6426-10.7898 5.5896-12.1728l.236-.0784c5.098-1.6553-8.3603 7.7211-.737 20.6175Z"
        opacity=".4"
    />
</svg>