<svg xmlns="http://www.w3.org/2000/svg" fill="none" viewBox="0 0 257 257">
  <path fill="#EBEBEB" d="M165.1 162.6h-11.8v46.2H165v-46.2Zm0 48.4h-11.8v7.6H165V211Zm0 10h-11.8v4.6H165v-4.7Zm0 6.9h-11.8v2.3H165v-2.3Zm4-65.3h-19.8l9.9-13.6 9.8 13.6Z"/>
  <path fill="#A1B2BC" fill-opacity=".4" d="M188.6 148h-11.8v60.8h11.8v-60.9Z"/>
  <path fill="#EBEBEB" d="M188.6 211h-11.8v7.6h11.8V211Zm0 10h-11.8v4.6h11.8v-4.7Zm0 6.9h-11.8v2.3h11.8v-2.3Zm4-80h-19.7l9.8-13.6 9.9 13.6Z"/>
  <path fill="#A1B2BC" fill-opacity=".5" d="M212.2 133.3h-11.8v75.4h11.8v-75.4Z"/>
  <path fill="#EBEBEB" d="M212.2 211h-11.8v7.6h11.8V211Zm0 10h-11.8v4.6h11.8v-4.7Zm0 6.9h-11.8v2.3h11.8v-2.3Z"/>
  <path fill="#A1B2BC" fill-opacity=".5" d="M216.1 133.3h-19.7l9.9-13.7 9.8 13.7Z"/>
  <path fill="#A1B2BC" fill-opacity=".7" d="M235.7 118.6H224v90.2h11.8v-90.2Z"/>
  <path fill="#EBEBEB" d="M235.7 211H224v7.6h11.8V211Zm0 10H224v4.6h11.8v-4.7Zm0 6.9H224v2.3h11.8v-2.3Z"/>
  <path fill="#A1B2BC" fill-opacity=".7" d="M239.7 118.6h-19.8l9.9-13.6 9.9 13.6Z"/>
  <path fill="#A1B2BC" fill-opacity=".6" d="M140.7 21.3c-21.3 0-21.4 30.4 0 30.4 21.5 0 21.5-30.4 0-30.4Z"/>
  <path fill="#DBDBDB" d="M153.7 39.3c-1.1 5.3-5.4 9.8-13 9.8-17.7 0-17.7-25.2 0-25.2h.4c-16.7.3-16.6 24.2.3 24.2 7 0 11-4 12.3-8.8Z"/>
  <path fill="#DBDBDB" d="M140.9 27.2a.5.5 0 0 1 .5.5v.9c1.5 0 3 .6 4.1 1.4.2.2.4.3.4.5a.6.6 0 0 1-.6.6c-.2 0-.3 0-.5-.2a7 7 0 0 0-3.4-1.4v6c3.5.6 5 1.8 5 4s-2 3.8-5 3.8V45a.6.6 0 0 1-1 0v-1.7a9 9 0 0 1-5.5-2.2v-.3a.6.6 0 0 1 .5-.5l.4.1a7.8 7.8 0 0 0 4.6 2v-6c-3.5-.8-5-2-5-4 0-2.2 2.1-3.8 5-3.9v-.8a.5.5 0 0 1 0-.4.5.5 0 0 1 .5 0Zm-.5 8v-5.7c-2.3 0-3.8 1.2-3.8 2.8 0 1.4.8 2.3 3.8 3Zm1 1.3v5.9c2.3 0 3.8-1.3 3.8-2.9 0-1.5-.8-2.3-3.8-3Zm16 75c-19.3 3.5-14.2 32 5 28.5 19.4-3.4 14.2-32-5-28.5Z"/>
  <path fill="#EBEBEB" d="M159.1 111.2c-18.3 3.3-13.2 31.8 5.2 28.5 18.4-3.3 13.2-31.8-5.2-28.5Z"/>
  <path fill="#DBDBDB" d="M173.3 126.1c0 5-3 10-9.5 11.2-15.2 2.7-19.5-21-4.2-23.7h.3c-14.3 2.8-10.2 25.2 4.3 22.6 6-1 8.8-5.4 9.1-10Z"/>
  <path fill="#DBDBDB" d="M162.8 116.7a.5.5 0 0 1 .4.5v.8a6.6 6.6 0 0 1 3.5 2v.3a.5.5 0 0 1-.5.5l-.4-.2a5.7 5.7 0 0 0-2.8-1.7l-.7 5.6c3 1 4.1 2.3 3.9 4.3-.2 2.1-2.2 3.4-4.7 3.2l-.2 1.5a.5.5 0 1 1-1 0l.2-1.7a7.6 7.6 0 0 1-4.4-2.6v-.3c0-.1 0-.2.2-.3l.3-.1c.2 0 .3 0 .4.2 1 1.1 2.2 2 3.7 2.2l.6-5.7c-2.9-1-4-2.2-3.8-4.2.3-2 2.2-3.4 4.7-3.2v-.7a.5.5 0 0 1 .6-.4Zm-1.3 7.5.6-5.4c-2-.2-3.4.8-3.5 2.2-.2 1.4.3 2.3 2.9 3.2Zm.7 1.4-.6 5.5c2 .2 3.4-.8 3.6-2.3.1-1.4-.5-2.4-3-3.2ZM96.2 66c15.5 2.8 11.4 25.9-4.2 23-15.6-2.7-11.4-25.8 4.1-23Z"/>
  <path fill="#EBEBEB" d="M94.7 65.9c14.8 2.6 10.7 25.7-4.1 23-14.9-2.6-10.8-25.7 4-23Z"/>
  <path fill="#DBDBDB" d="M83.2 78a9 9 0 0 0 7.7 9c12.4 2.2 15.8-17 3.5-19.2H94c11.6 2.3 8.2 20.4-3.5 18.3a8.6 8.6 0 0 1-7.4-8.2Z"/>
  <path fill="#DBDBDB" d="M93.5 69.5a.4.4 0 0 1 .3.5l-.1.6a5.3 5.3 0 0 1 2.8 1.8v.3a.4.4 0 0 1-.5.3.4.4 0 0 1-.3-.2 4.7 4.7 0 0 0-2.2-1.5l-.8 4.5c2.3 1 3.2 2 2.9 3.7-.4 1.7-2 2.6-4 2.3l-.3 1.2a.4.4 0 0 1-.4.4.4.4 0 0 1-.3-.5l.2-1.3a6.2 6.2 0 0 1-3.4-2.4V79a.4.4 0 0 1 .5-.3.4.4 0 0 1 .2.2 5 5 0 0 0 2.9 2l.8-4.5c-2.3-1-3.1-2-2.8-3.7.3-1.6 2-2.5 3.9-2.3l.1-.6a.4.4 0 0 1 .5-.3Zm-1.5 6 .8-4.3c-1.5-.3-2.7.5-3 1.6-.2 1.2.2 1.9 2.2 2.8Zm.5 1.2-.8 4.4c1.6.3 2.8-.5 3-1.7.3-1.1-.2-1.9-2.2-2.8Z"/>
  <path fill="#EBEBEB" d="M163.2 222.7h-33.8v7.5h33.8v-7.5Z"/>
  <path fill="#000" d="M130.8 223.4c.3 2 .3 4 0 6-.4-2-.4-4 0-6Zm2.5 0c.4 2 .4 4 0 6-.2-1-.3-2-.2-3 0-1 0-2 .2-3Zm1.2 0c.4 2 .4 4 0 6-.3-2-.3-4 0-6Zm6.8 0a15.9 15.9 0 0 1 0 6l-.3-3 .3-3Zm1.8 0c.4 2 .4 4 0 6-.2-1-.2-2-.2-3s0-2 .2-3Zm7.6 0c.3 2 .3 4 0 6-.3-2-.3-4 0-6Zm1.7 0c.4 2 .4 4 0 6-.3-2-.3-4 0-6Zm3.3 0c.3 2 .3 4 0 6-.4-2-.4-4 0-6Zm-6.5 0a15.9 15.9 0 0 1 0 6 15.4 15.4 0 0 1 0-6Zm-12.4 0c.3 2 .3 4 0 6-.4-2-.4-4 0-6Zm8.7 0a15.9 15.9 0 0 1 0 6 15.6 15.6 0 0 1 0-6Zm1.3 0c.3 2 .3 4 0 6-.3-2-.3-4 0-6Zm13 0c.4 2 .4 4 0 6-.3-2-.3-4 0-6Zm2 0c.3 2 .3 4 0 6-.4-2-.4-4 0-6Zm-4.7 0c.4 2 .4 4 0 6-.3-2-.3-4 0-6Zm-17.3 0c.4 2 .4 4 0 6-.3-2-.3-4 0-6Z" opacity=".1"/>
  <path fill="#000" d="M163.2 222.7v1.6l-33.8 1v-2.6h33.8Z" opacity=".1"/>
  <path fill="#EBEBEB" d="M161 215.2h-34v7.5h34v-7.5Z"/>
  <path fill="#000" d="M128.5 216a16 16 0 0 1 0 5.9l-.3-3 .3-3Zm2.5 0c.3 1.9.3 4 0 5.9-.4-2-.4-4 0-6Zm1.2 0a16 16 0 0 1 0 5.9 15.4 15.4 0 0 1 0-6Zm6.8 0c.3 1.9.3 4 0 5.9-.4-2-.4-4 0-6Zm1.8 0c.4 1.9.4 4 0 5.9-.3-2-.3-4 0-6Zm7.6 0a16 16 0 0 1 0 5.9l-.3-3 .3-3Zm1.7 0a16 16 0 0 1 0 5.9c-.2-1-.2-2-.2-3s0-2 .2-3Zm3.2 0a15.6 15.6 0 0 1 0 5.9 15.4 15.4 0 0 1 0-6Zm-6.4 0c.4 1.9.4 4 0 5.9-.3-2-.3-4 0-6Zm-12.4 0c.3 1.9.3 4 0 5.9l-.3-3c0-1 0-2 .3-3Zm8.7 0c.4 1.9.4 4 0 5.9-.3-2-.3-4 0-6Zm1.3 0c.3 1.9.3 4 0 5.9l-.3-3 .3-3Zm13 0a16 16 0 0 1 0 5.9c-.2-1-.3-2-.2-3 0-1 0-2 .2-3Zm2 0c.3 1.9.3 4 0 5.9-.3-1-.4-2-.3-3 0-1 0-2 .2-3Zm-4.7 0a16 16 0 0 1 0 5.9c-.2-1-.2-2-.2-3s0-2 .2-3Zm-17.3 0a15.6 15.6 0 0 1 0 5.9c-.3-2-.3-4 0-6Z" opacity=".1"/>
  <path fill="#000" d="M161 215.2v1.6l-34 1v-2.6h34Z" opacity=".1"/>
  <path fill="#EBEBEB" d="M166.2 200.3h-33.9v7.5h33.9v-7.5Z"/>
  <path fill="#000" d="M133.7 201c.3 2 .3 4 0 6-.3-2-.3-4 0-6Zm2.5 0a15.9 15.9 0 0 1 0 6c-.2-1-.3-2-.2-3 0-1 0-2 .2-3Zm1.3 0c.3 2 .3 4 0 6-.4-2-.4-4 0-6Zm6.7 0a15.9 15.9 0 0 1 0 6c-.2-1-.3-2-.2-3 0-1 0-2 .2-3Zm1.8 0a15.9 15.9 0 0 1 0 6l-.2-3c0-1 0-2 .2-3Zm7.6 0c.4 2 .4 4 0 6-.3-2-.3-4 0-6Zm1.8 0c.3 2 .3 4 0 6-.4-2-.4-4 0-6Zm3.2 0c.3 2 .3 4 0 6-.4-2-.4-4 0-6Zm-6.5 0a15.5 15.5 0 0 1 0 6 15.5 15.5 0 0 1 0-6Zm-12.4 0c.3 2 .3 4 0 6-.4-2-.4-4 0-6Zm8.8 0a15.6 15.6 0 0 1 0 6 15.4 15.4 0 0 1 0-6Zm1.2 0c.4 2 .4 4 0 6-.3-2-.3-4 0-6Zm13 0c.4 2 .4 4 0 6-.3-2-.3-4 0-6Zm2 0c.3 2 .3 4 0 6-.4-2-.4-4 0-6Zm-4.6 0c.3 2 .3 4 0 6-.4-2-.4-4 0-6Zm-17.3 0c.3 2 .3 4 0 6-.4-2-.4-4 0-6Z" opacity=".1"/>
  <path fill="#A1B2BC" d="M166.2 200.3v1.6l-33.9 1v-2.6h33.9Z" opacity=".7"/>
  <path fill="#EBEBEB" d="M165.3 192.9h-33.8v7.4h33.8V193Z"/>
  <path fill="#000" d="M163.8 199.5a16 16 0 0 1 0-6c.2 1 .3 2 .2 3 0 1 0 2-.2 3Zm-2.5 0c-.4-2-.4-4 0-6 .3 2 .3 4 0 6Zm-1.3 0a15.5 15.5 0 0 1 0-6 15.6 15.6 0 0 1 0 6Zm-6.7 0c-.4-2-.4-4 0-6 .3 2 .3 4 0 6Zm-1.9 0c-.3-2-.3-4 0-6 .4 2 .4 4 0 6Zm-7.5 0a16 16 0 0 1 0-6c.2 1 .2 2 .2 3s0 2-.2 3Zm-1.8 0a16 16 0 0 1 0-6l.3 3c0 1 0 2-.3 3Zm-3.2 0c-.3-2-.3-4 0-6 .4 2 .4 4 0 6Zm6.4 0c-.3-2-.3-4 0-6 .4 2 .4 4 0 6Zm12.5 0a16 16 0 0 1 0-6l.3 3-.3 3Zm-8.7 0c-.4-2-.4-4 0-6 .3 2 .3 4 0 6Zm-1.3 0a16 16 0 0 1 0-6c.2 1 .2 2 .2 3s0 2-.2 3Zm-13 0a16 16 0 0 1 0-6 15.5 15.5 0 0 1 0 6Zm-2 0a16 16 0 0 1 0-6l.3 3c0 1 0 2-.3 3Zm4.6 0a16 16 0 0 1 0-6 15.4 15.4 0 0 1 0 6Zm17.3 0c-.3-2-.3-4 0-6 .4 2 .4 4 0 6Z" opacity=".1"/>
  <path fill="#A1B2BC" d="M165.3 192.9v1.5l-33.8 1.1V193h33.8Z" opacity=".7"/>
  <path fill="#EBEBEB" d="M163.2 185.4h-33.8v7.4h33.8v-7.4Z"/>
  <path fill="#000" d="M130.8 186c.3 2 .3 4 0 6-.4-2-.4-4 0-6Zm2.5 0a15.9 15.9 0 0 1 0 6c-.2-1-.3-2-.2-3 0-1 0-2 .2-3Zm1.2 0c.4 2 .4 4 0 6-.3-2-.3-4 0-6Zm6.8 0a15.9 15.9 0 0 1 0 6 15.4 15.4 0 0 1 0-6Zm1.8 0a16 16 0 0 1 0 6c-.2-1-.2-2-.2-3s0-2 .2-3Zm7.6 0c.3 2 .3 4 0 6-.3-2-.3-4 0-6Zm1.7 0c.4 2 .4 4 0 6-.3-2-.3-4 0-6Zm3.3 0c.3 2 .3 4 0 6-.4-2-.4-4 0-6Zm-6.5 0a15.5 15.5 0 0 1 0 6c-.3-2-.3-4 0-6Zm-12.4 0c.3 2 .3 4 0 6-.4-2-.4-4 0-6Zm8.7 0a15.4 15.4 0 0 1 0 6c-.3-2-.3-4 0-6Zm1.3 0c.3 2 .3 4 0 6-.3-2-.3-4 0-6Zm13 0c.4 2 .4 4 0 6-.3-2-.3-4 0-6Zm2 0c.3 2 .3 4 0 6-.4-2-.4-4 0-6Zm-4.7 0c.4 2 .4 4 0 6-.3-2-.3-4 0-6Zm-17.3 0c.4 2 .4 4 0 6l-.2-3c0-1 0-2 .2-3Z" opacity=".1"/>
  <path fill="#A1B2BC" d="M163.2 185.4v1.6l-33.8 1v-2.6h33.8Z" opacity=".7"/>
  <path fill="#EBEBEB" d="M163.2 207.8h-33.8v7.5h33.8v-7.5Z"/>
  <path fill="#000" d="M161.7 214.5c-.3-2-.3-4 0-6 .4 2 .4 4 0 6Zm-2.5 0a15.6 15.6 0 0 1 0-6c.3 2 .3 4 0 6Zm-1.2 0c-.4-2-.4-4 0-6 .2 1 .2 2 .2 3s0 2-.2 3Zm-6.8 0c-.3-2-.3-4 0-6 .4 2 .4 4 0 6Zm-1.8 0a15.4 15.4 0 0 1 0-6c.3 2 .3 4 0 6Zm-7.6 0c-.3-2-.3-4 0-6 .4 2 .4 4 0 6Zm-1.7 0c-.4-2-.4-4 0-6 .3 2 .3 4 0 6Zm-3.2 0a15.9 15.9 0 0 1 0-6l.2 3c0 1 0 2-.2 3Zm6.4 0c-.4-2-.4-4 0-6 .3 2 .3 4 0 6Zm12.4 0c-.3-2-.3-4 0-6 .4 2 .4 4 0 6Zm-8.7 0c-.3-2-.3-4 0-6 .3 2 .3 4 0 6Zm-1.3 0c-.3-2-.3-4 0-6 .4 2 .4 4 0 6Zm-13 0c-.4-2-.4-4 0-6 .3 2 .3 4 0 6Zm-2 0c-.3-2-.3-4 0-6 .4 2 .4 4 0 6Zm4.7 0c-.4-2-.4-4 0-6 .3 2 .3 4 0 6Zm17.3 0a15.9 15.9 0 0 1 0-6 15.5 15.5 0 0 1 0 6Z" opacity=".1"/>
  <path fill="#A1B2BC" d="M163.2 207.8v1.6l-33.8 1v-2.6h33.8Z" opacity=".7"/>
  <path fill="#FFC727" d="M116.6 90c12.8 4 7 22.9-5.9 18.9-12.8-4-6.9-23 6-19Z"/>
  <path fill="#000" d="M116.6 90c12.8 4 7 22.9-5.9 18.9-12.8-4-6.9-23 6-19Z" opacity=".1"/>
  <path fill="#FFC727" d="M115.4 89.6c12.2 3.8 6.3 22.7-5.9 19-12.2-4-6.2-22.8 6-19Z"/>
  <path fill="#000" d="M104.5 98.5c-.3 3.5 1.2 7 5.5 8.4 10.1 3.2 15-12.5 5-15.7h-.3c9.5 3.1 4.8 18-4.9 15a7.2 7.2 0 0 1-5.3-7.7Z" opacity=".1"/>
  <path fill="#000" d="M114.3 93.2a.3.3 0 0 1 .2.4l-.2.5a4.5 4.5 0 0 1 2 2v.2a.3.3 0 0 1-.4.1.3.3 0 0 1-.2-.1 4 4 0 0 0-1.6-1.6l-1.4 3.6c1.8 1.1 2.3 2.2 1.8 3.5-.5 1.3-2 1.8-3.7 1.3l-.4 1-.1.2a.3.3 0 0 1-.3 0l-.1-.1a.3.3 0 0 1-.1-.2v-.2l.4-1a5.2 5.2 0 0 1-2.5-2.5v-.2a.4.4 0 0 1 .6-.1l.1.1c.4 1 1.2 1.7 2 2.1l1.5-3.6c-1.8-1.2-2.3-2.2-1.8-3.5.5-1.3 2-1.9 3.6-1.3l.2-.5a.3.3 0 0 1 .4-.1Zm-2.2 4.7 1.4-3.5c-1.3-.4-2.4 0-2.7 1-.4.8-.2 1.5 1.3 2.5Zm.3 1-1.4 3.6c1.3.5 2.4 0 2.8-1 .4-.8.1-1.5-1.4-2.6Z" opacity=".1"/>
  <path fill="#FFC727" d="M102.4 175c10.8 3.3 5.8 19.3-5 16-10.8-3.5-5.8-19.4 5-16Z"/>
  <path fill="#000" d="M102.4 175c10.8 3.3 5.8 19.3-5 16-10.8-3.5-5.8-19.4 5-16Z" opacity=".1"/>
  <path fill="#FFC727" d="M101.4 174.6c10.3 3.2 5.3 19.2-5 16-10.3-3.2-5.3-19.2 5-16Z"/>
  <path fill="#000" d="M92.2 182.1c-.4 3 1 6 4.6 7.1 8.5 2.7 12.7-10.6 4.1-13.2h-.1c8 2.6 4 15.1-4.2 12.6a6.1 6.1 0 0 1-4.4-6.5Z" opacity=".1"/>
  <path fill="#000" d="m100.4 177.6.2.2v.2l-.2.4a3.9 3.9 0 0 1 1.7 1.7v.1l-.1.2h-.3a.3.3 0 0 1-.1-.1c-.4-.6-.8-1-1.4-1.4l-1.2 3c1.5 1 2 2 1.6 3-.5 1.2-1.8 1.6-3.1 1.1l-.3.9-.2.1h-.2a.3.3 0 0 1-.2-.3l.4-.9a4.4 4.4 0 0 1-2.1-2.1v-.2a.3.3 0 0 1 .4-.1l.1.1a4 4 0 0 0 1.8 1.8l1.2-3c-1.5-1-2-2-1.6-3 .5-1 1.8-1.5 3-1l.3-.5a.3.3 0 0 1 .1-.2h.2Zm-1.8 4 1.1-2.9c-1-.4-2 0-2.3.8-.3.7 0 1.3 1.2 2.2Zm.2 1-1.1 3c1 .3 2 0 2.3-.9.3-.8.1-1.3-1.2-2.2Z" opacity=".1"/>
  <path fill="#FFC727" d="M101.5 140.4c1 10-13.8 11.5-14.8 1.5s13.8-11.5 14.8-1.5Z"/>
  <path fill="#000" d="M101.5 140.4c1 10-13.8 11.5-14.8 1.5s13.8-11.5 14.8-1.5Z" opacity=".1"/>
  <path fill="#FFC727" d="M101.4 139.5c1 9.5-13.8 11-14.8 1.5-1-9.6 13.9-11 14.8-1.5Z"/>
  <path fill="#000" d="M92 134.6a5.7 5.7 0 0 0-4.1 6.2c.8 8 13 6.7 12.3-1.2v-.1c.6 7.4-11 8.5-11.8 1a5.4 5.4 0 0 1 3.7-6Z" opacity=".1"/>
  <path fill="#000" d="M98.6 139.8v.1l-.2.1H98a3.4 3.4 0 0 1-.8 2h-.1a.3.3 0 0 1-.2 0 .3.3 0 0 1 0-.2.3.3 0 0 1 0-.2c.3-.5.6-1 .6-1.6l-2.9.1c-.3 1.6-.8 2.3-1.9 2.3-1 0-1.9-.9-2-2.2h-.9a.3.3 0 0 1 0-.4h1a3.9 3.9 0 0 1 1-2.5h.1a.3.3 0 0 1 .2.4 4 4 0 0 0-.9 2h3c.3-1.6.8-2.3 1.9-2.3 1 0 1.8.9 2 2.1h.3a.2.2 0 0 1 .2.3Zm-3.9-.1 2.8-.1c0-1-.6-1.7-1.4-1.7-.7 0-1.1.4-1.4 1.8Zm-.6.4-2.9.1c0 1 .7 1.7 1.5 1.7s1.1-.4 1.4-1.8Z" opacity=".1"/>
  <path fill="#FFC727" d="M67.7 27.1c-9.7 2.6-5.8 17 3.8 14.4 9.7-2.7 5.9-17-3.8-14.4Z"/>
  <path fill="#000" d="M67.7 27.1c-9.7 2.6-5.8 17 3.8 14.4 9.7-2.7 5.9-17-3.8-14.4Z" opacity=".1"/>
  <path fill="#FFC727" d="M68.6 26.9c-9.2 2.5-5.4 16.8 3.9 14.3 9.2-2.4 5.3-16.8-3.9-14.3Z"/>
  <path fill="#000" d="M65 36.9a5.7 5.7 0 0 0 6.8 3.2c7.7-1.9 4.8-13.9-3-12v.1c7.2-1.6 10 9.7 2.6 11.5A5.4 5.4 0 0 1 65 37Z" opacity=".1"/>
  <path fill="#000" d="M69.2 29.7a.3.3 0 0 1 .3.2v.4a3.3 3.3 0 0 1 2.1.4l.1.2a.3.3 0 0 1-.2.3.2.2 0 0 1-.2 0 3 3 0 0 0-1.7-.5l.6 2.9c1.6 0 2.3.5 2.5 1.5.2 1-.6 2-1.8 2.3v.8a.3.3 0 0 1-.4 0l-.2-.8a4 4 0 0 1-2.5-.6v-.1a.3.3 0 0 1 .1-.3h.2a3 3 0 0 0 2.2.6l-.5-2.9c-1.6 0-2.3-.5-2.5-1.5-.2-1 .5-2 1.8-2.3V30a.3.3 0 0 1 .1-.2Zm.5 3.9-.5-2.8c-1 .2-1.6.9-1.4 1.6.1.8.5 1 1.9 1.2Zm.5.5.6 2.8c1-.2 1.5-1 1.4-1.7-.1-.8-.6-1-2-1.1Z" opacity=".1"/>
  <path fill="#FFC727" d="M52.8 114.6c-5.7 8.3 6.5 16.7 12.2 8.5 5.7-8.3-6.5-16.7-12.2-8.5Z"/>
  <path fill="#000" d="M52.8 114.6c-5.7 8.3 6.5 16.7 12.2 8.5 5.7-8.3-6.5-16.7-12.2-8.5Z" opacity=".1"/>
  <path fill="#FFC727" d="M53.3 113.9c-5.4 7.8 6.8 16.3 12.2 8.4 5.4-7.8-6.7-16.3-12.2-8.4Z"/>
  <path fill="#000" d="M57 123.8a5.6 5.6 0 0 0 7.3-2c4.6-6.4-5.3-13.5-10-7.1v.1c4.4-6 13.9 1 9.4 7a5.4 5.4 0 0 1-6.6 2Z" opacity=".1"/>
  <path fill="#000" d="m55.6 115.6.1-.1h.2l.3.3a3.4 3.4 0 0 1 2-1v.1a.3.3 0 0 1 0 .4h-.1a3 3 0 0 0-1.5.8l2.2 1.9c1.3-1 2.2-1.2 3-.5.7.6.8 1.9 0 3l.6.4a.2.2 0 0 1 0 .4.2.2 0 0 1-.3 0l-.6-.5c-.6.6-1.4 1-2.3 1.1a.3.3 0 0 1-.3 0 .3.3 0 0 1 0-.4h.2c.8-.1 1.5-.5 2-1l-2.2-1.9c-1.3 1-2.1 1.1-3 .4-.7-.6-.8-1.8 0-2.8l-.3-.3a.3.3 0 0 1 0-.3Zm2.9 2.7-2.2-1.8c-.6.7-.6 1.6 0 2.1s1 .5 2.2-.3Zm.7 0 2.2 1.8c.7-.8.6-1.7 0-2.2-.6-.5-1-.4-2.2.4Z" opacity=".1"/>
  <path fill="#FFC727" d="M69.4 177c-7 4.6-.3 15 6.7 10.5 7-4.6.3-15-6.7-10.4Z"/>
  <path fill="#000" d="M69.4 177c-7 4.6-.3 15 6.7 10.5 7-4.6.3-15-6.7-10.4Z" opacity=".1"/>
  <path fill="#FFC727" d="M70 176.7c-6.6 4.3 0 14.7 6.7 10.3 6.7-4.3 0-14.6-6.7-10.3Z"/>
  <path fill="#000" d="M69.7 185.5a4.7 4.7 0 0 0 6.2.8c5.7-3.4.3-12.2-5.3-8.7h-.1c5.3-3 10.4 5.2 5 8.5a4.5 4.5 0 0 1-5.8-.6Z" opacity=".1"/>
  <path fill="#000" d="M71.2 178.7h.3l.2.4a2.8 2.8 0 0 1 1.7-.2l.1.1a.2.2 0 0 1 0 .2s0 .1-.1.1a.2.2 0 0 1-.2 0l-1.4.1 1.2 2.2c1.2-.4 2-.2 2.4.5.4.8 0 1.7-1 2.3l.4.6a.2.2 0 0 1-.1.3.2.2 0 0 1-.3-.1l-.3-.6a3.2 3.2 0 0 1-2.2 0 .2.2 0 0 1 0-.3h.2c.6.2 1.3.2 1.8 0l-1.1-2.3c-1.3.4-2 .2-2.4-.5-.4-.8 0-1.7.9-2.2l-.2-.3a.2.2 0 0 1 .1-.3Zm1.4 3-1.1-2c-.7.3-1 1-.7 1.6.3.5.7.7 1.8.4Zm.6.3 1 2c.8-.4 1.1-1 .8-1.6-.3-.6-.7-.7-1.8-.4Z" opacity=".1"/>
  <path fill="#FFC727" d="M148.2 222.7h-33.8v7.5h33.8v-7.5Z"/>
  <path fill="#000" d="M115.8 223.4a15.9 15.9 0 0 1 0 6 15.4 15.4 0 0 1 0-6Zm2.5 0c.3 2 .3 4 0 6-.4-2-.4-4 0-6Zm1.2 0c.3 2 .3 4 0 6-.3-2-.3-4 0-6Zm6.8 0c.3 2 .3 4 0 6-.4-2-.4-4 0-6Zm1.8 0c.3 2 .3 4 0 6-.3-2-.3-4 0-6Zm7.6 0a15.4 15.4 0 0 1 0 6 15.6 15.6 0 0 1 0-6Zm1.7 0a15.5 15.5 0 0 1 0 6 15.4 15.4 0 0 1 0-6Zm3.2 0c.4 2 .4 4 0 6-.3-2-.3-4 0-6Zm-6.4 0c.3 2 .3 4 0 6l-.3-3 .3-3Zm-12.5 0a15.9 15.9 0 0 1 0 6l-.2-3c0-1 0-2 .2-3Zm8.8 0c.3 2 .3 4 0 6l-.3-3 .3-3Zm1.3 0a15.9 15.9 0 0 1 0 6 15.6 15.6 0 0 1 0-6Zm13 0a15.5 15.5 0 0 1 0 6 15.6 15.6 0 0 1 0-6Zm1.9 0a16 16 0 0 1 0 6l-.3-3 .3-3Zm-4.6 0a15.5 15.5 0 0 1 0 6c-.3-2-.3-4 0-6Zm-17.3 0c.3 2 .3 4 0 6-.3-2-.3-4 0-6Z" opacity=".1"/>
  <path fill="#000" d="M148.2 222.7v1.6l-33.8 1v-2.6h33.8Z" opacity=".1"/>
  <path fill="#FFC727" d="M145.4 215.2h-33.9v7.5h33.9v-7.5Z"/>
  <path fill="#000" d="M143.9 221.9c-.4-2-.4-4 0-6 .3 2 .3 4 0 6Zm-2.6 0a15.5 15.5 0 0 1 0-6 15.4 15.4 0 0 1 0 6Zm-1.2 0c-.3-2-.3-4 0-6l.3 3-.3 3Zm-6.7 0c-.4-2-.4-4 0-6 .3 2 .3 4 0 6Zm-1.9 0a15.5 15.5 0 0 1 0-6 15.4 15.4 0 0 1 0 6Zm-7.5 0c-.4-2-.4-4 0-6 .3 2 .3 4 0 6Zm-1.8 0c-.3-2-.3-4 0-6 .4 2 .4 4 0 6Zm-3.2 0a16 16 0 0 1 0-6l.3 3-.3 3Zm6.4 0c-.3-2-.3-4 0-6 .4 2 .4 4 0 6Zm12.5 0c-.4-2-.4-4 0-6 .3 2 .3 4 0 6Zm-8.8 0c-.3-2-.3-4 0-6 .4 2 .4 4 0 6Zm-1.2 0c-.4-2-.4-4 0-6 .3 2 .3 4 0 6Zm-13 0c-.4-2-.4-4 0-6 .3 2 .3 4 0 6Zm-2 0c-.3-2-.3-4 0-6 .4 2 .4 4 0 6Zm4.6 0c-.3-2-.3-4 0-6 .4 2 .4 4 0 6Zm17.3 0a15.9 15.9 0 0 1 0-6l.3 3-.3 3Z" opacity=".1"/>
  <path fill="#000" d="M145.4 215.2v1.6l-33.9 1v-2.6h33.9Z" opacity=".1"/>
  <path fill="#FFC727" d="M148 207.8h-34v7.5h34v-7.5Z"/>
  <path fill="#000" d="M115.5 208.5a15.9 15.9 0 0 1 0 6l-.2-3c0-1 0-2 .2-3Zm2.6 0c.3 2 .3 4 0 6-.4-2-.4-4 0-6Zm1.2 0a15.9 15.9 0 0 1 0 6 15.6 15.6 0 0 1 0-6Zm6.7 0c.4 2 .4 4 0 6-.3-2-.3-4 0-6Zm1.9 0c.3 2 .3 4 0 6-.4-2-.4-4 0-6Zm7.5 0a15.9 15.9 0 0 1 0 6l-.2-3c0-1 0-2 .2-3Zm1.8 0a15.9 15.9 0 0 1 0 6l-.3-3 .3-3Zm3.2 0a15.4 15.4 0 0 1 0 6c-.3-2-.3-4 0-6Zm-6.4 0c.3 2 .3 4 0 6-.4-2-.4-4 0-6Zm-12.5 0c.4 2 .4 4 0 6-.2-1-.2-2-.2-3s0-2 .2-3Zm8.8 0c.3 2 .3 4 0 6-.4-2-.4-4 0-6Zm1.2 0a15.9 15.9 0 0 1 0 6l-.2-3c0-1 0-2 .2-3Zm13 0a15.9 15.9 0 0 1 0 6l-.2-3 .3-3Zm2 0c.3 2 .3 4 0 6l-.3-3 .3-3Zm-4.6 0a15.9 15.9 0 0 1 0 6 15.4 15.4 0 0 1 0-6Zm-17.3 0c.3 2 .3 4 0 6-.4-2-.4-4 0-6Z" opacity=".1"/>
  <path fill="#000" d="M148 207.8v1.6l-33.9 1v-2.6H148Z" opacity=".1"/>
  <path fill="#FFC727" d="M75.9 222.7H42v7.5h34v-7.5Z"/>
  <path fill="#000" d="M43.4 223.4a15.5 15.5 0 0 1 0 6 15.5 15.5 0 0 1 0-6Zm2.5 0c.4 2 .4 4 0 6-.3-2-.3-4 0-6Zm1.3 0c.3 2 .3 4 0 6-.4-2-.4-4 0-6Zm6.7 0c.4 2 .4 4 0 6-.3-2-.3-4 0-6Zm1.9 0c.3 2 .3 4 0 6-.4-2-.4-4 0-6Zm7.5 0a15.5 15.5 0 0 1 0 6 15.5 15.5 0 0 1 0-6Zm1.8 0a15.5 15.5 0 0 1 0 6 15.5 15.5 0 0 1 0-6Zm3.2 0c.3 2 .3 4 0 6-.4-2-.4-4 0-6Zm-6.4 0c.3 2 .3 4 0 6l-.3-3c0-1 0-2 .3-3Zm-12.5 0a15.9 15.9 0 0 1 0 6l-.3-3 .3-3Zm8.8 0c.3 2 .3 4 0 6-.4-2-.4-4 0-6Zm1.2 0a15.9 15.9 0 0 1 0 6 15.5 15.5 0 0 1 0-6Zm13 0a15.5 15.5 0 0 1 0 6 15.5 15.5 0 0 1 0-6Zm2 0a15.9 15.9 0 0 1 0 6 15.5 15.5 0 0 1 0-6Zm-4.6 0a15.5 15.5 0 0 1 0 6c-.4-2-.4-4 0-6Zm-17.3 0c.3 2 .3 4 0 6-.4-2-.4-4 0-6Z" opacity=".1"/>
  <path fill="#000" d="M75.9 222.7v1.6l-33.9 1v-2.6h34Z" opacity=".1"/>
  <path fill="#FFC727" d="M73.5 215.2H39.7v7.5h33.8v-7.5Z"/>
  <path fill="#000" d="M41.1 216c.4 1.9.4 4 0 5.9-.3-2-.3-4 0-6Zm2.5 0a15.5 15.5 0 0 1 0 5.9 15.5 15.5 0 0 1 0-6Zm1.2 0c.4 1.9.4 4 0 5.9-.3-2-.3-4 0-6Zm6.8 0c.3 1.9.3 4 0 5.9-.3-2-.3-4 0-6Zm1.9 0a15.5 15.5 0 0 1 0 5.9 15.5 15.5 0 0 1 0-6Zm7.5 0c.3 1.9.3 4 0 5.9-.3-2-.3-4 0-6Zm1.7 0c.4 1.9.4 4 0 5.9-.3-2-.3-4 0-6Zm3.3 0a16 16 0 0 1 0 5.9l-.3-3c0-1 0-2 .3-3Zm-6.5 0c.4 1.9.4 4 0 5.9-.3-2-.3-4 0-6Zm-12.4 0c.3 1.9.3 4 0 5.9-.4-2-.4-4 0-6Zm8.7 0c.4 1.9.4 4 0 5.9-.3-2-.3-4 0-6Zm1.3 0c.3 1.9.3 4 0 5.9-.3-2-.3-4 0-6Zm13 0c.4 1.9.4 4 0 5.9-.3-2-.3-4 0-6Zm2 0c.3 1.9.3 4 0 5.9-.4-2-.4-4 0-6Zm-4.7 0c.4 1.9.4 4 0 5.9-.3-2-.3-4 0-6Zm-17.3 0a16 16 0 0 1 0 5.9l-.2-3c0-1 0-2 .2-3Z" opacity=".1"/>
  <path fill="#000" d="M73.5 215.2v1.6l-33.8 1v-2.6h33.8Z" opacity=".1"/>
  <path fill="#FFC727" d="M78.8 200.3H44.9v7.5h33.9v-7.5Z"/>
  <path fill="#000" d="M46.3 201a15.5 15.5 0 0 1 0 6c-.3-2-.3-4 0-6Zm2.5 0c.4 2 .4 4 0 6-.3-2-.3-4 0-6Zm1.3 0c.3 2 .3 4 0 6-.4-2-.4-4 0-6Zm6.7 0c.4 2 .4 4 0 6-.3-2-.3-4 0-6Zm1.9 0c.3 2 .3 4 0 6-.4-2-.4-4 0-6Zm7.5 0a15.5 15.5 0 0 1 0 6c-.3-2-.3-4 0-6Zm1.8 0a15.5 15.5 0 0 1 0 6c-.4-2-.4-4 0-6Zm3.2 0c.3 2 .3 4 0 6-.4-2-.4-4 0-6Zm-6.4 0a16 16 0 0 1 0 6l-.3-3c0-1 0-2 .3-3Zm-12.5 0a15.5 15.5 0 0 1 0 6 15.5 15.5 0 0 1 0-6Zm8.8 0c.3 2 .3 4 0 6l-.3-3c0-1 0-2 .3-3Zm1.2 0a15.5 15.5 0 0 1 0 6 15.5 15.5 0 0 1 0-6Zm13 0a15.5 15.5 0 0 1 0 6c-.3-2-.3-4 0-6Zm2 0a15.5 15.5 0 0 1 0 6 15.5 15.5 0 0 1 0-6Zm-4.6 0c.3 2 .3 4 0 6-.4-2-.4-4 0-6Zm-17.3 0c.3 2 .3 4 0 6-.4-2-.4-4 0-6Z" opacity=".1"/>
  <path fill="#000" d="M78.8 200.3v1.6l-33.9 1v-2.6h33.9Z" opacity=".1"/>
  <path fill="#FFC727" d="M78 192.9H44v7.4h34V193Z"/>
  <path fill="#000" d="M76.4 199.5a15.5 15.5 0 0 1 0-6c.3 2 .3 4 0 6Zm-2.5 0c-.4-2-.4-4 0-6 .3 2 .3 4 0 6Zm-1.2 0c-.4-2-.4-4 0-6 .3 2 .3 4 0 6Zm-6.8 0c-.4-2-.4-4 0-6 .3 2 .3 4 0 6Zm-1.8 0c-.4-2-.4-4 0-6 .3 2 .3 4 0 6Zm-7.6 0a15.5 15.5 0 0 1 0-6c.3 2 .3 4 0 6Zm-1.7 0a15.5 15.5 0 0 1 0-6c.3 2 .3 4 0 6Zm-3.3 0c-.3-2-.3-4 0-6 .4 2 .4 4 0 6Zm6.5 0a16 16 0 0 1 0-6l.2 3c0 1 0 2-.2 3Zm12.4 0a15.5 15.5 0 0 1 0-6 15.5 15.5 0 0 1 0 6Zm-8.7 0a16 16 0 0 1 0-6c.2 1 .3 2 .2 3 0 1 0 2-.2 3Zm-1.3 0a15.5 15.5 0 0 1 0-6c.3 2 .3 4 0 6Zm-13 0c-.4-2-.4-4 0-6 .3 2 .3 4 0 6Zm-2 0a15.5 15.5 0 0 1 0-6 15.5 15.5 0 0 1 0 6Zm4.7 0c-.4-2-.4-4 0-6 .3 2 .3 4 0 6Zm17.2 0c-.3-2-.3-4 0-6 .4 2 .4 4 0 6Z" opacity=".1"/>
  <path fill="#000" d="M78 192.9v1.5l-34 1.1V193h34Z" opacity=".1"/>
  <path fill="#FFC727" d="M75.9 185.4H42v7.4h34v-7.4Z"/>
  <path fill="#000" d="M43.4 186c.4 2 .4 4 0 6-.3-2-.3-4 0-6Zm2.5 0c.4 2 .4 4 0 6-.3-2-.3-4 0-6Zm1.3 0c.3 2 .3 4 0 6-.4-2-.4-4 0-6Zm6.7 0c.4 2 .4 4 0 6-.2-1-.2-2-.2-3s0-2 .2-3Zm1.9 0c.3 2 .3 4 0 6-.4-2-.4-4 0-6Zm7.5 0c.4 2 .4 4 0 6-.3-2-.3-4 0-6Zm1.8 0c.3 2 .3 4 0 6-.4-2-.4-4 0-6Zm3.2 0c.3 2 .3 4 0 6-.4-2-.4-4 0-6Zm-6.4 0a15.9 15.9 0 0 1 0 6l-.3-3c0-1 0-2 .3-3Zm-12.5 0a15.5 15.5 0 0 1 0 6c-.3-2-.3-4 0-6Zm8.8 0a15.9 15.9 0 0 1 0 6l-.3-3c0-1 0-2 .3-3Zm1.2 0a15.5 15.5 0 0 1 0 6c-.3-2-.3-4 0-6Zm13 0c.4 2 .4 4 0 6-.3-2-.3-4 0-6Zm2 0a15.5 15.5 0 0 1 0 6c-.4-2-.4-4 0-6Zm-4.6 0c.3 2 .3 4 0 6-.4-2-.4-4 0-6Zm-17.3 0c.3 2 .3 4 0 6-.4-2-.4-4 0-6Z" opacity=".1"/>
  <path fill="#000" d="M75.9 185.4v1.6L42 188v-2.6h34Z" opacity=".1"/>
  <path fill="#FFC727" d="M75.9 207.8H42v7.5h34v-7.5Z"/>
  <path fill="#000" d="M74.3 214.5a16 16 0 0 1 0-6l.3 3c0 1 0 2-.3 3Zm-2.5 0c-.3-2-.3-4 0-6 .4 2 .4 4 0 6Zm-1.2 0a15.5 15.5 0 0 1 0-6 15.5 15.5 0 0 1 0 6Zm-6.8 0c-.3-2-.3-4 0-6 .4 2 .4 4 0 6Zm-1.8 0c-.3-2-.3-4 0-6 .3 2 .3 4 0 6Zm-7.6 0a15.9 15.9 0 0 1 0-6l.3 3c0 1 0 2-.3 3Zm-1.7 0a15.9 15.9 0 0 1 0-6c.2 1 .3 2 .2 3 0 1 0 2-.2 3Zm-3.2 0a15.5 15.5 0 0 1 0-6c.3 2 .3 4 0 6Zm6.4 0c-.3-2-.3-4 0-6 .3 2 .3 4 0 6Zm12.5 0c-.4-2-.4-4 0-6l.2 3c0 1 0 2-.2 3Zm-8.8 0c-.3-2-.3-4 0-6 .3 2 .3 4 0 6Zm-1.3 0a15.9 15.9 0 0 1 0-6l.3 3c0 1 0 2-.3 3Zm-13 0a15.9 15.9 0 0 1 0-6l.3 3-.3 3Zm-1.9 0a15.9 15.9 0 0 1 0-6l.3 3-.3 3Zm4.6 0a15.9 15.9 0 0 1 0-6 15.5 15.5 0 0 1 0 6Zm17.3 0c-.4-2-.4-4 0-6 .3 2 .3 4 0 6Z" opacity=".1"/>
  <path fill="#000" d="M75.9 207.8v1.6l-33.9 1v-2.6h34Z" opacity=".1"/>
  <path fill="#FFC727" d="M42.8 196.7c22.3 4 16.4 37-6 33-22.3-4-16.3-37 6-33Z"/>
  <path fill="#000" d="M42.8 196.7c22.3 4 16.4 37-6 33-22.3-4-16.3-37 6-33Z" opacity=".1"/>
  <path fill="#FFC727" d="M40.7 196.3c21.2 3.9 15.3 36.9-6 33-21.2-3.8-15.3-36.8 6-33Z"/>
  <path fill="#000" d="M24.3 213.6c0 6 3.5 11.6 11 13 17.6 3.1 22.5-24.3 4.9-27.5h-.4c16.6 3.3 11.8 29.2-5 26.2a12.2 12.2 0 0 1-10.5-11.7Z" opacity=".1"/>
  <path fill="#000" d="M39.6 202.6a.6.6 0 0 1 .4.7l-.2.9a7.6 7.6 0 0 1 3.8 2.8v.3a.6.6 0 0 1-.7.4.6.6 0 0 1-.4-.2c-.8-1-1.8-1.9-3-2.3l-1.6 6.3c3.2 1.6 4.4 3.2 3.8 5.5-.6 2.4-3 3.6-5.9 3l-.4 1.7a.6.6 0 0 1-.7.4.6.6 0 0 1-.4-.7l.4-1.7a8.7 8.7 0 0 1-4.6-3.8v-.3a.6.6 0 0 1 .7-.4.6.6 0 0 1 .3.3 7.5 7.5 0 0 0 4 3.1l1.5-6.4c-3.2-1.6-4.3-3.2-3.7-5.5.6-2.2 3-3.5 5.8-2.9l.2-.8a.6.6 0 0 1 .7-.4Zm-2.7 8.5 1.6-6.2c-2.2-.5-4 .4-4.4 2-.4 1.6 0 2.7 2.8 4.2Zm.7 1.6-1.6 6.2c2.3.6 4.1-.4 4.5-2.1.4-1.6-.2-2.7-3-4.1Z" opacity=".1"/>
  <path fill="#F7A9A0" d="M139.8 230.3c1.2.4 35.5.3 36.8-.5.5-.4.8-5.4 1-11.4a352.6 352.6 0 0 0 0-8.9V196h-22.3v18.3l.1 4s-13.1 6-14.4 7c-1.4 1.1-2.4 4.6-1.2 5Z"/>
  <path fill="#263238" d="M177.4 222.2c-.2 4.2-.4 7.3-.8 7.5-1.3.9-35.6 1-36.8.5-1.2-.4-.1-3.8 1.2-4.9.7-.6 5.2-2.7 9-4.5-4.3 2.6-11.8 7.3 27.4 1.4Z"/>
  <path fill="#37474F" d="m185 100.9-6.1 60.4-.1 3.1-1.1 42.3H153s1.6-38 2.6-46.7c1.1-11.4 8.6-59.1 8.6-59.1H185Z"/>
  <path fill="#263238" d="M176 163.4c.7-13 1.9-25.8 3.4-38.7a676.2 676.2 0 0 0-1.4 17c-1.2 13-2 26-2.5 39l-.8 22a.1.1 0 0 1-.2.1c.3-13.2.7-26.3 1.5-39.4Z"/>
  <path fill="#263238" d="m154.6 202.8 2-.1h2.2a244.7 244.7 0 0 1 12.9-.1h2.4l2.5.2-4.4.2a200.7 200.7 0 0 1-12.9 0H157l-1.3-.1h-1.1v-.1Zm30.5-102-6.2 60.5-.1 3.1-11.6-63.5H185Z"/>
  <path fill="#F7A9A0" d="M203.7 229.2a373 373 0 0 0 33.3-15.7c.3-.5-1.5-5.1-3.8-10.7l-3.9-8.3C226 188.1 223 183 223 183l-19.8 9 5.7 11.6 2.4 4.8 1.7 3.6s-9.5 10.8-10.2 12.3c-.8 1.6-.4 5.1.9 5Z"/>
  <path fill="#263238" d="M237 213.5c-.8 1.3-32 15.6-33.3 15.7-1.3.1-1.7-3.5-1-5 .5-.9 4-5 6.9-8.3-2.9 4-7.6 11.2 25-9.6a26 26 0 0 1 2.4 7.2Z"/>
  <path fill="#37474F" d="M164.1 100.9s1.7 8.6 7.7 13c0 0 13.2 44.3 15 49.4 3 8.8 18.9 38.5 18.9 38.5l24.6-10.6s-18.8-33-20.8-35.6a449 449 0 0 1-11.3-38.6c1.4-11-3.8-16.2-3.8-16.2h-30.3Z"/>
  <path fill="#263238" d="M184 104a8.2 8.2 0 0 0 3 4.3c1.7 1.2 3.6 1.8 5.6 1.9.3 0 .3.5 0 .5-4 0-8.1-2.6-8.7-6.7 0 0 .1-.1.2 0Zm-16 7.1c1.4.6 2.8 1.4 4 2.2l4 2.8c.1 0 0 .1 0 .1l-4.2-2.3a26.8 26.8 0 0 1-3.9-2.8Z"/>
  <path fill="#263238" d="m167.4 102.8.7 2.7.7 2.6a4 4 0 0 0 1.3 2.1l1 .8.7.5v-.4l-.3-1-.5-2.4-1-4.5c0-.1.1-.1.1 0l1.4 4.4a134.4 134.4 0 0 1 1 6.3l-.3-.8-.2-.8v-.3l-1.1-.7a39 39 0 0 1-1.2-.7 4.2 4.2 0 0 1-1.4-2c-.3-1-.4-1.8-.5-2.7l-.5-3.1s0-.1 0 0Zm38.2 94a267.6 267.6 0 0 1 20.2-8.8c.3 0 .3 0 0 .2l-7.8 3.6a384.5 384.5 0 0 1-12.4 5Zm-12.8-95a19.6 19.6 0 0 1 3.2 14l-.1.7v.3l-.1.3c0 .5.2 1 .3 1.4l1.4 5.7c2 7.4 4 14.9 6.2 22.3l1.6 5.6.8 2.8.5 1.3.6 1.3 5.7 10.1a1063.6 1063.6 0 0 0 11.6 20.1c-1.7-2.2-8-13.2-12-19.9-2-3.3-4-6.6-5.8-10l-.7-1.3-.5-1.4a107 107 0 0 1-2.5-8.4c-2-7.4-4.1-14.9-6-22.4-.5-1.9-1-3.8-1.3-5.7l-.3-1.4v-.4l.1-.4.2-.7.2-2.9c0-3.8-1-7.6-3-11Z"/>
  <path fill="#A1B2BC" d="M150.2 84.5a1.4 1.4 0 0 0 .7 1.2l1.1.7a38.4 38.4 0 0 1 .7-8.8l-.2 4.8c-.1 1.3 0 2.7-.2 4.1l1.3.5v-1.5l.2-4.3v5.9l.9.3.5.1.2-2.8.2-4.5h.1v4.5l-.1 2.9c2.5.6 5.1.7 7.7.4a34.6 34.6 0 0 0 6.5-1.4v-4.4h.1l.2 3v1.3l1-.3c-.2-1.9 0-3.8 0-5.7 0 1.9.3 3.7.2 5.6l.6-.2c.5-.4.2-7.8.2-9.6-.1-3.2 0-19.5-1-22.6a9.6 9.6 0 0 0-5.5-6.3c-1.3-.5-2.9-.4-4.2-.4-6.7 0-8.9 4.7-9.5 13l-1.5 22-.2 2.5Z"/>
  <path fill="#F7A9A0" d="M168.8 72a63 63 0 0 1-6.3 32.6 52.7 52.7 0 0 1-19.3 12.4c-1.8.8-9-12.1-7-13 4.2-1.9 14.1-6.6 15.2-7.7 1-1.2 7.1-12.7 9.7-19.1 3.4-8.7 6.8-8.3 7.7-5.2Z"/>
  <path fill="#F7A9A0" d="M142.6 116.6c-1.3.9-7.5 4-9.4 4.5-2 .5-7.6 1.6-8.1.2-.6-1.5 1-2 1-2s-2.4.1-2.8-1.3c-.4-1.5 2.2-2.1 2.2-2.1s-2.6-.1-2.9-1.7c-.3-1.5 2.4-1.6 2.4-1.6s-2.3 0-2-1.4c.3-1.6 4.6-1.1 6.7-1.9l9.3-4 3.6 11.3Z"/>
  <path fill="#263238" d="M124.8 112.6c3.1.3 4.5 0 7.3-1.4 0 0 .1 0 0 0-2.5 1.6-4.3 2.4-7.3 1.5-.2 0-.2-.1 0-.1Zm.4 3.2a16.6 16.6 0 0 0 8-1.4c-3 1.4-4.7 2.1-8 1.6-.1 0-.1-.2 0-.2Zm1.1 3.5a15 15 0 0 0 7.8-2 10.5 10.5 0 0 1-7.7 2.1c-.3 0-.3 0 0 0Z"/>
  <path fill="#F7A9A0" d="M139.6 102.4s-4 0-5.7.4c-1.7.4-7.6 4.3-6.8 5.6 1 1.7 4.8.2 6.6-.8 0 0 2.2 4 5.2 3.4 3-.5.7-8.6.7-8.6Z"/>
  <path fill="#263238" d="M127.5 108.8c2 .9 4.2-.6 6-1.4a.2.2 0 0 1 .3 0v.1c1 1.6 3 3.6 5 3.6h.1v.1c-2.2.3-4.3-1.5-5.3-3.3-1.9.9-4.2 2.3-6.1 1v-.1Z"/>
  <path fill="#FFC727" d="M170.8 72.7a80 80 0 0 1-2.3 18.6l-3.3-1.5-10.9-5s5.4-8.8 9.4-14c.5-.7 1-1.3 1.6-1.8 3-3 4.9-1.2 5.5 3.7Z"/>
  <path fill="#263238" d="M168.5 88.4a270.9 270.9 0 0 0-11.8-5.3c5.7 3 9.8 4.5 11.8 5.4Z"/>
  <path fill="#000" d="m168.5 91.3-3.3-1.5-8.9-4L166.5 68c2.3-1.4 3.8.5 4.3 4.7a80 80 0 0 1-2.3 18.6Z" opacity=".1"/>
  <path fill="#FFC727" d="m163.2 91.5 1 9.4h30.2S183.7 72.4 175 67.2c-4.4-2.6-8.2-1.2-10 2-.4.9-6 11.9-5.7 15.9.3 3.5 4 6.3 4 6.3Z"/>
  <path fill="#263238" d="m171.3 89.6-3.6.7-1.7.5-.8.3a4 4 0 0 1-1 .2h1l.8-.2 1.7-.5 3.6-.9Zm3 1h-4.5l-.7.2-.8.1h3a81.3 81.3 0 0 1 3-.2Z"/>
  <path fill="#F7A9A0" d="M170.4 67.7c0 .5-1.3 4.7-3.7 5.4-.8.2-2.2-4-2.2-4l-.2-.3-2.4-4 4-5 .6-.7 1.3 2.6.1.2.1.2.4.6.2.6.3.5c.6 1.2 1 2.5 1.5 3.9Z"/>
  <path fill="#263238" d="M167.8 61.7a9.4 9.4 0 0 1-3.5 7.1l-2.4-4 4-5 .6-.7 1.3 2.6Z"/>
  <path fill="#F7A9A0" d="M153.6 59.8c2 8 7 7.8 8.7 7.4 1.6-.4 6.9-1.9 5.8-10-1-8.3-5.4-10-9-9.3-3.7.7-7.4 3.8-5.5 11.9Z"/>
  <path fill="#DBDBDB" d="M154.4 58c.2 0 .4-.2.5-.3.2 0 .4-.2.5-.3a.3.3 0 0 0-.1-.4.7.7 0 0 0-.7 0 1 1 0 0 0-.6.6v.2a.3.3 0 0 0 .3.2h.1Zm5.4-1.5-.6.1a1 1 0 0 1-.6 0l-.1-.2v-.2a.7.7 0 0 1 .6-.4c.3 0 .6 0 .8.2a.3.3 0 0 1 .1.3v.2h-.2Z"/>
  <path fill="#263238" d="M159.1 58.7h.1c.1.6.4 1.2 1 1.2-.7.1-1-.7-1-1.2Z"/>
  <path fill="#263238" d="M159.5 58c.8-.3 1.4 1.4.6 1.7-.8.3-1.3-1.4-.6-1.7Z"/>
  <path fill="#263238" d="m159.9 58 .5.1c.2 0 .3-.3.4-.5a.7.7 0 0 1-.2.9c-.3.1-.6-.1-.8-.4V58Zm-3.8 1.5c.2.5.3 1.2-.1 1.5.6-.2.4-1 .1-1.5Z"/>
  <path fill="#263238" d="M155.4 59c-.8.3-.3 2 .5 1.8s.3-2-.5-1.7Z"/>
  <path fill="#263238" d="m155.1 59.3-.4.4c-.1 0-.3 0-.5-.2 0 .3.3.6.6.6s.4-.4.4-.7c0 0 0-.2-.1-.1Zm5.5 3.5c0 .2-.1.4-.3.5h-.6v.1a.8.8 0 0 0 .7 0 .6.6 0 0 0 .3-.6Zm-2.8-1.2.2 1.2h.3a1.9 1.9 0 0 0 1.5-1.2s0-.1 0 0c-.5.4-1 .8-1.6 1L158 61l-.8.5c-.4-1.8-.4-3.6-.8-5.3h-.1c0 2 .2 3.8.6 5.7 0 .2.7-.3.9-.4Z"/>
  <path fill="#263238" d="m158.2 62.5 1 .5h.6c.5-.3.4-.7.3-1l-.3-.6a3 3 0 0 1-1.6 1Z"/>
  <path fill="#FF9ABB" d="M159.2 63h.7c.4-.3.3-.7.2-1a1 1 0 0 0-.9 1Z"/>
  <path fill="#A1B2BC" d="M168 57.2a3.4 3.4 0 0 1-2.7-1.8c-1.5 0-3-.5-4.4-1.4l1.4 1.6c-5.2 1-8.2-2-8.2-2a8.9 8.9 0 0 0-.9 3.9s-1.2-3-.4-5.6c.9-3.1 6.9-6.3 11-4.3 4.6 2.2 4.3 9.6 4.3 9.6Z"/>
  <path fill="#DBDBDB" d="M158.3 56.3h2.8a8.1 8.1 0 0 1-6-1.9c-.5-.4-1-1-1.3-1.5h-.1c.3.6.6 1.2 1.1 1.7.5.5 1.1 1 1.7 1.2a6 6 0 0 0 1.8.5"/>
  <path fill="#F7A9A0" d="M166.7 57.4s1-3 2.2-2.8c1.3.3 1.2 4.3 0 5.2a1.4 1.4 0 0 1-1.5.2c-.2 0-.3-.2-.4-.4l-.3-2.2Z"/>
  <path fill="#263238" d="M168.9 55.8c-.8.7-1 1.7-1 2.7a.8.8 0 0 1 1-.6.9.9 0 0 0-.8.7l-.2.8c0 .1-.2.1-.2 0-.4-1.2 0-3 1.2-3.6Z"/>
  <path fill="#37474F" d="m111.5 133.7 4.3 4-2.2 5.1-2-9.1Z"/>
  <path fill="#455A64" d="m128 133.6 7.1 4-20 1.6V137l12.8-3.4Zm14.5-6s3.1-1.3 3.5-3.7c1.2-7.4-13.2-18.1-15.2-16-2 2.2 1.8 12.7 1.8 12.7l9.9 7Zm-.9-1.4-7.6-5.5s-3.4-9-1.9-10.7c1.6-1.7 13.3 7.5 12.3 13.3-.3 1.8-2.8 3-2.8 3Z"/>
  <path fill="#37474F" d="m134.4 144 13.4-13.8-22.7-17.7-8.5 9 17.8 22.6Z"/>
  <path fill="#455A64" d="M125.1 112.5v-2.8l-11.2 11.2 2.7.6 8.5-9Z"/>
  <path fill="#DBDBDB" d="M110.7 134.8s-2.7-1.2-2.7 0c0 1.1 2.7 0 2.7 0Zm1.4 3.6s-3-.7-2.7.5c.2 1.1 2.7-.5 2.7-.5Zm-4.4-.5s-3 .2-2.4 1.3c.5 1 2.4-1.3 2.4-1.3Zm.2 3.3s-3 .6-2.4 1.5c.7 1 2.4-1.5 2.4-1.5Zm-2.7-4.8s-3-.3-2.6.8c.3 1.1 2.6-.8 2.6-.8Zm-1.7 3.8s-3 .6-2.3 1.6c.7 1 2.3-1.6 2.3-1.6Zm9.4 2.5s-2.4 1.8-1.3 2.4c1 .6 1.3-2.4 1.3-2.4Zm-3 7.4s-1 2.8.1 2.8c1.2-.1-.2-2.8-.2-2.8Zm2-3.3s-1.6 2.6-.4 2.7c1.2.2.4-2.7.4-2.7Zm-.7-5s-2.9 1-2 1.8c.8.9 2-1.9 2-1.9Zm-2.2 3.9s-2 2.3-.8 2.6c1.2.4.8-2.6.8-2.6Z"/>
  <path fill="#F7A9A0" d="M177 71c2.4 6.3 0 29.5-3.4 34.4-5.3 7.2-14.3 11.7-18.4 13.8-1.8.9-9-12.2-7-13.2a86.3 86.3 0 0 0 13.4-8.9c1-1.2 6-13.5 8-20.4 2.7-9.3 6.2-9 7.4-5.8Z"/>
  <path fill="#F7A9A0" d="M133.8 115.7a2.2 2.2 0 0 0 1.8 1.7 3 3 0 0 0 0 2.3c.4 1.2 2.6 1 2.6 1a4 4 0 0 0 .2 2.4c.6 1.2 2.8 1.3 2.8 1.3.3.8.8 1.5 1.6 2 2 1 5-.7 6.9-1.7 2-1 6.4-5.9 7.3-6.7l-6.7-12.4s-10 2.3-12 3.8c-1.8 1.3-4.8 4.6-4.5 6.3Z"/>
  <path fill="#263238" d="M135.6 117.4c1.6-1.9 3.6-3.2 5.5-4.6v.1c-1.9 1.4-3.5 3.1-5.4 4.6 0 0-.1 0 0-.1Zm2.5 3.3 1.3-1a53.5 53.5 0 0 1 4.5-2.7s.1 0 0 .1L141 119l-1.4 1a7.2 7.2 0 0 1-1.4.9v-.1Zm3.2 3.7c.3-.4.7-.6 1.2-.8l1.3-.9a88.1 88.1 0 0 0 2.8-1.6l-2.7 1.8-1.3.9a4.3 4.3 0 0 1-1.3.6Z"/>
  <path fill="#263238" d="M164.6 90.6a75.6 75.6 0 0 1-3 6.8l-1.2 1-2.4 1.8a89.1 89.1 0 0 1-10 6.2l-5 1.5-2.5.8-1.2.4-1 .7c-1.4 1-2.6 2.3-3.6 3.7-.5.7-.7 1.5-.7 2.3 0 .4.2.8.5 1 .4.3.7.5 1.2.6l-.2 1.4c0 .4 0 .9.3 1.3a2 2 0 0 1-.4-1.3c0-.5 0-1 .2-1.4-.4 0-.8-.2-1.2-.4-.3-.3-.6-.7-.6-1.2 0-1 .2-1.8.7-2.5 1-1.5 2.2-2.8 3.5-4l1.1-.7 1.3-.4 2.4-.8 5-1.5a159.6 159.6 0 0 0 12.4-7.9l1.1-1c.4-.3.6-.7.8-1.1l2.5-5.3Z"/>
  <path fill="#FFC727" d="M170 74c3.8-8.5 8.2-7 8.6 1.3.2 5.4.1 10.9-.2 16.3l-14.5-4 6-13.7Z"/>
  <path fill="#263238" d="M169.6 74.8c-.5 1.2-1.1 2.2-1.7 3.3l.2-1.5-.2 1.2-.1.6v.1a84.5 84.5 0 0 0-2.7 5.7l-1.4 3.4 1.4.4c.1 0 .2 0 0-.1l-1.2-.4 1.6-3.1 1.4-3.1 2.8-6.4h-.1Zm10 5-.4 1.2-.1.5V77l-.4 7.4a69 69 0 0 0-.3 7l-1.3-.1 1.5.4a70.7 70.7 0 0 0 .5-9.4l.2-1.3c.2-.4.2-.9.3-1.3Z"/>
  <path fill="#263238" d="M177.7 89.4a284.2 284.2 0 0 0-12.4-3.6 118.5 118.5 0 0 0 12.4 3.6Z"/>
  <path fill="#455A64" d="M95 116.5c-.6-9.6-14.6-12.1-15.3-21.7l6.7-1.3c2.1 7 11.7 10 14.3 16.7l-5.7 6.3Z"/>
  <path fill="#37474F" d="M93 106.2c-1 .7-3 .2-4.7-1.1-1.7-1.4-2-3-.7-3.6 1.2-.6 3.3-.1 4.7 1 1.5 1.3 1.8 2.9.7 3.7Zm-7-6.4a1.1 1.1 0 0 1-1-.5c-.4-.4-.3-.8 0-1a1.2 1.2 0 0 1 1 .6c.4.3.4.7 0 .9Zm10 9.3c-.2.2-.6 0-1-.3-.3-.4-.4-1-.2-1.1.3-.2.7 0 1 .3.4.4.5.9.2 1.1Zm-9.3-15-6.9 1.5v-.8l6.6-1.3.3.6Zm8.3 22.4v-.9l5.5-6 .2.6-5.7 6.3Z"/>
  <path fill="#37474F" d="m95.4 116-.4.5c-.6-9.6-14.6-12.1-15.3-21.7l.5-.1c.7 9.4 14.4 12 15.2 21.4Zm5.3-5.8-.3.4c-2.6-6.9-12.4-9.9-14.4-17l.4-.1c2.2 7 11.7 10 14.3 16.7Z"/>
  <path fill="#37474F" d="M80.7 97.3a10 10 0 0 1-.4-1.8l.9-.2c.2 1 0 1.8-.5 2Zm15.4 17-.8 1c0-.7-.2-1.2-.5-1.8.4-.4 1 0 1.3.9Zm3.3-5.6.7 1.3-.7.8c-.3-.8-.4-1.7 0-2.1ZM85.3 94.4l1-.2c0 .5.3 1 .5 1.3-.5.2-1.3-.3-1.5-1Z"/>
  <path fill="#455A64" d="m91.9 103-.1.2c.3.2.5.5.7 1h-.2l-.1-.1-.6-.9-1 .7c.8.7 1 1.2.6 1.4-.3.2-1.1 0-1.9-.6l-.2.1h-.2l-.1-.2.3-.2c-.4-.3-.8-.8-1-1.3a.3.3 0 0 1 .3 0v.1c.2.5.5.8.8 1.1l1-.6c-.7-.7-.8-1.1-.5-1.3.4-.2 1.1 0 1.8.5h.4Zm-1.5.6 1-.6c-.5-.4-1.1-.6-1.4-.4-.2.1-.2.4.4 1Zm0 .4-1 .6c.7.4 1.2.6 1.5.4.3-.1.2-.4-.4-1ZM89 59c2.3-9.2-8.3-10.5-6.1-19.8 1.5.7 3 1.2 4.7 1.3 1.3 5.6 8 7.8 6.3 15.3L89 59Z"/>
  <path fill="#37474F" d="M90.4 50.4c-1 .3-2.6-.4-3.6-1.6-1-1.2-.7-2.3.5-2.5a4.1 4.1 0 0 1 3.6 1.4c.8 1 .5 2.3-.5 2.7Zm-4-5.5a1 1 0 0 1-.7-.6c-.2-.3-.1-.6.1-.6a1 1 0 0 1 .8.5c.2.3.1.6-.1.7Zm5.2 8.3c-.2.1-.4-.1-.5-.5-.2-.4-.1-.8.1-.8.3-.1.5 0 .7.4a.8.8 0 0 1-.3 1ZM87.8 41c-1.7 0-3.4-.4-5-1v-.8c1.6.7 3.2 1.2 4.9 1.3v.5ZM89 59l.2-.8 4.9-3-.2.6L89 59Z"/>
  <path fill="#37474F" d="m89.3 58.8-.3.2c2.3-9.2-8.3-10.5-6.1-19.8l.2.1c-1.9 9 8.4 10.3 6.2 19.5Zm4.6-3-.3.2c1.8-7.6-5.2-9.8-6.3-15.5h.4c1.2 5.6 8 7.8 6.2 15.3Z"/>
  <path fill="#37474F" d="M82.9 41.8V40l.7.2c0 1-.3 1.5-.7 1.5Zm7.3 15.8-.7.4.1-1.7c.4-.2.7.3.6 1.3Zm3.7-3.6-.1 1.4-.7.4c.1-.9.4-1.6.8-1.8Zm-7.3-13.1h.8l.4 1.2a1.4 1.4 0 0 1-1.2-1.2Z"/>
  <path fill="#455A64" d="M90.4 47.9v.1h-.1l.3.8v.1a.2.2 0 0 1-.2 0v-.1c0-.3-.2-.5-.3-.7l-1 .3c.4.6.4 1 0 1-.3.2-.8-.1-1.2-.7l-.3.1a.2.2 0 0 1-.2 0v-.2h.3c-.2-.4-.4-.7-.4-1v-.2a.2.2 0 0 1 .2.1v.1c0 .3.2.6.4.9l1-.3c-.4-.6-.4-1 0-1a1.5 1.5 0 0 1 1.2.7h.2c0-.1 0 0 .1 0Zm-1.4.3 1-.3a1 1 0 0 0-1-.5c-.2 0-.3.2 0 .8Zm0 .2-1 .3c.3.4.7.6 1 .5.2 0 .3-.2 0-.8Zm-23.6 69.9c2.2-9.3-8.4-10.5-6.2-19.8 1.5.7 3.1 1.2 4.8 1.3 1.3 5.6 8 7.8 6.3 15.3l-4.9 3.2Z"/>
  <path fill="#37474F" d="M66.7 109.7c-1 .3-2.5-.4-3.5-1.6-1-1.2-.7-2.3.5-2.5a4.1 4.1 0 0 1 3.6 1.4c.8 1 .5 2.3-.6 2.7Zm-3.9-5.6a1 1 0 0 1-.8-.5c-.2-.3 0-.6.2-.7a1 1 0 0 1 .8.6c.2.3.1.6-.2.6Zm5.2 8.4c-.2.1-.4-.1-.6-.5 0-.4 0-.8.2-.9.2 0 .5.2.6.5a.8.8 0 0 1-.2.9Zm-3.8-12.2c-1.8 0-3.5-.4-5.1-1 0-.2 0-.5.2-.8 1.5.7 3 1.2 4.7 1.3l.2.5Zm1.2 18 .2-.8 4.9-3-.2.6-4.9 3.2Z"/>
  <path fill="#37474F" d="m65.7 118.1-.3.2c2.2-9.3-8.4-10.5-6.2-19.8l.3.1c-2 9 8.4 10.3 6.2 19.5Zm4.6-3-.3.2c1.7-7.6-5.2-9.8-6.3-15.6h.3c1.3 5.7 8 8 6.3 15.4Z"/>
  <path fill="#37474F" d="M59.3 101v-1.6l.7.2c-.1.9-.4 1.5-.7 1.4Zm7.3 15.9-.7.4.1-1.7c.4-.2.7.3.6 1.3Zm3.7-3.7c0 .5 0 1-.2 1.4l-.6.4c.1-.8.4-1.6.8-1.8Zm-7.3-13h.8c0 .4.2.8.4 1.1a1.4 1.4 0 0 1-1.2-1.1Z"/>
  <path fill="#455A64" d="M66.8 107.2v.1h-.2c.2.3.3.5.3.8v.1h-.1l-.1-.2c0-.2 0-.4-.2-.6l-1 .3c.4.6.4 1 0 1-.3.1-.8-.2-1.3-.7l-.3.1h-.1v-.2h.3c-.3-.4-.4-.7-.4-1.1h.2c0 .4.1.7.3 1l1-.3c-.3-.6-.3-1 0-1a1.5 1.5 0 0 1 1.3.6h.2Zm-1.4.3 1-.3a1.1 1.1 0 0 0-1-.5c-.3 0-.3.2 0 .8Zm0 .2-1 .3c.3.4.7.6 1 .5.3 0 .2-.2 0-.8Zm31.3 60.2c-1.7-12-14.8-8.6-16.4-20.6 1.7.2 3.8 0 6.2-.7 4.1 6 13.1 5.6 14.6 15.2l-4.4 6Z"/>
  <path fill="#37474F" d="M94.3 157c-1 1-3.2.8-4.9-.1-1.7-1-2-2.5-.7-3.3a5.2 5.2 0 0 1 5 0c1.4 1 1.6 2.5.6 3.5Zm-7.2-4.7a1.2 1.2 0 0 1-1.2-.3c-.4-.3-.4-.7-.1-.8a1.3 1.3 0 0 1 1.2.3c.3.3.4.6.1.8Zm10 7.5c-.2.2-.6 0-1-.3-.2-.4-.3-.9-.1-1.1.2-.2.6-.1 1 .3a1 1 0 0 1 0 1ZM86.9 147a24 24 0 0 1-6.5 1.2l-.2-1c1.8.2 4 0 6.3-.7l.4.5Zm9.8 20.8-.2-1 4.4-6 .1 1-4.3 6Z"/>
  <path fill="#37474F" d="m97 167.5-.3.4c-1.7-12-14.8-8.6-16.4-20.6h.3c1.9 11.6 14.7 8.3 16.4 20.2Zm4-5.7-.2.4C99.3 152.4 90 153 86 146.7h.5c4.1 6 13 5.4 14.5 15.1Z"/>
  <path fill="#37474F" d="M81.4 150.3c-.3-.6-.5-1.3-.6-2h.8c.3 1 .3 1.9-.2 2Zm16 15.3-.6.8a12 12 0 0 0-.6-2c.3-.4 1 0 1.2 1.2Zm2.7-6 .5 1.7-.6.8c-.2-1-.2-2 .1-2.5Zm-14.7-12 1-.3 1 1a1.7 1.7 0 0 1-2-.8Z"/>
  <path fill="#455A64" d="M93.2 154v.2l-.1.1.7.8v.1a.2.2 0 0 1-.3 0l-.6-.7-1 .7c.7.6.9 1 .5 1.3-.3.3-1.1.2-1.9-.2l-.3.2a.2.2 0 0 1-.2 0s-.1-.1 0-.1l.2-.3c-.4-.2-.7-.6-1-1a.3.3 0 0 1 .3 0h.1c.2.4.5.7.8.9l1-.8c-.7-.6-.8-1-.4-1.2.4-.3 1.1-.2 1.8.2l.2-.1h.2Zm-1.5 1 1-.7a1.4 1.4 0 0 0-1.4-.2c-.3.2-.3.4.4 1Zm0 .4-1 .7c.5.4 1.1.4 1.4.2.3-.2.2-.4-.4-1Zm-18.9-32.7c-3 10.7-15 13.7-17.9 24.4l-5.2-8c3.6-7.7 12.1-11.2 15.8-18.8l7.3 2.4Z"/>
  <path fill="#37474F" d="M63.6 129.7c1.3.9 1 2.9-.7 4.4-1.7 1.6-3.9 2-5 1-1-1.2-.7-3.2.8-4.5s3.6-1.8 4.9-.9Zm-7.5 7c.2.3.1.9-.2 1.3-.4.5-.9.6-1 .3a1.2 1.2 0 0 1 .2-1.3c.3-.4.8-.5 1-.3Zm10.4-10.5c.3.1.3.7 0 1.1-.4.4-1 .6-1.3.5s-.2-.7.1-1.1c.4-.5.9-.7 1.2-.5Zm-16.4 12.2a634 634 0 0 0 5.1 7.8l-.3 1a855 855 0 0 1-5.1-8c0-.3.2-.5.3-.8Zm22.7-15.7-.3 1a276 276 0 0 1-7.3-2.7c0-.3.2-.5.3-.7l7.3 2.4Z"/>
  <path fill="#37474F" d="M72.4 122.6h.4c-3 10.8-15 13.8-17.9 24.5l-.3-.5c3-10.5 14.7-13.5 17.8-24Zm-6.9-2.3.5.1c-3.7 7.8-12.4 11.3-16 19.2l-.3-.5c3.6-7.7 12.1-11.2 15.8-18.8Z"/>
  <path fill="#37474F" d="m55.7 143.8-.8 1.9-.8-1.1c.5-1 1.2-1.4 1.6-.9ZM71 123l1 .4-.8 2c-.6-.3-.7-1.3-.2-2.4Zm-6.3-.5.8-1.4 1 .3c-.4 1-1.3 1.4-1.8 1.1ZM51 140l-.7-1 .8-1.6c.4.6.3 1.7-.1 2.6Z"/>
  <path fill="#455A64" d="M59.2 131h.4l1.2-.6h.2v.2h-.2l-1 .6 1 .9c1-.7 1.5-.9 2-.6.3.3 0 1-.6 1.7l.2.2v.2l-.2.1-.3-.2a4.6 4.6 0 0 1-1.8.9v-.2l.1-.1c.6-.2 1-.4 1.5-.8l-1-.9c-1 .7-1.6.9-1.9.6-.3-.4-.1-1 .5-1.7l-.1-.1v-.2Zm1.3 1.3-1-.9c-.6.5-.7 1-.5 1.3.3.2.6.1 1.5-.4Zm.5 0 1 .8c.6-.6.7-1.1.4-1.3-.2-.3-.6-.2-1.4.4Zm21-56.7c-9.3 5.5-25.1-8-34.2-1.6.7-3.8 1.8-7.5 3.4-11 9.2.2 21 8.1 28.4 3l2.5 9.6Z"/>
  <path fill="#37474F" d="M70.2 71.8c0 1.7-2.4 2.4-5.2 1.5-2.8-1-4.7-2.7-4.3-4.1.4-1.5 2.7-2 5.2-1.3 2.4.7 4.3 2.3 4.3 4Zm-12.6-3.6c-.1.3-.8.5-1.5.4-.6-.2-1-.5-1-.9.2-.3.8-.5 1.5-.4.7.1 1.1.5 1 .9Zm17.9 4c0 .4-.4.8-1 .7-.7 0-1.3-.4-1.3-.8s.4-.6 1-.6c.7 0 1.2.3 1.3.7ZM52 63a52 52 0 0 0-3.4 10.5l-.8.5a51 51 0 0 1 3.4-11h.8Zm30 12.6-.8.5-2.2-9.8c.2 0 .4-.2.6-.4l2.5 9.7Z"/>
  <path fill="#37474F" d="M82 75v.7c-9.2 5.3-25-8-34.1-1.7l.1-.8c9.2-5.8 24.7 7.2 34 1.8Zm-2.4-9 .2.5c-7.5 5.2-19.6-3-28.9-3l.3-.5c9.2.2 21 8.1 28.4 3Z"/>
  <path fill="#37474F" d="M50.8 72c-.7.1-1.4.4-2 .7l.4-1.7c1-.3 1.8.2 1.6 1Zm30 2.1.3 1.4-2 .6c-.2-.7.6-1.5 1.7-2Zm-3.3-6.4L79 67l.3 1.3c-.9.5-1.8.1-2-.6Zm-26.3-2.9.6-1.2 1.9.1c-.3.7-1.4 1.1-2.5 1.1Z"/>
  <path fill="#455A64" d="m65.8 68.5.2.2v.2c.5.2 1 .4 1.5.8l.2.1h-.4a5 5 0 0 0-1.4-.7l-.2 1.3c1.4.6 2 1 2 1.5s-1 .6-2.2.3v.3c0 .1-.2.1-.4 0l-.2-.1V72c-.7-.2-1.4-.6-2-1l-.2-.2h.5a6 6 0 0 0 1.8 1l.3-1.3c-1.4-.6-2-1-1.9-1.5.1-.4 1-.5 2.1-.2v-.2h.3Zm-.5 1.8.2-1.3c-.9-.3-1.5-.2-1.6.2 0 .3.2.5 1.4 1Zm.4.4-.2 1.3c1 .2 1.6.2 1.7-.2 0-.4-.3-.6-1.5-1.1Z"/>
  <path fill="#37474F" d="M80.3 139.8s20.3-2.2 27.8 18.6c0 0-20.4.4-27.8-18.6Zm20.4-31.9s16-12.7 33.4.8c0 0-17 11.3-33.4-.8Zm-42-52.2s16.6.5 20.3 18c0 0-16.5-1.9-20.4-18Z"/>
  <path fill="#455A64" d="M80 139.8s7.4-15.4 25.3-11.6c0 0-8.6 14.6-25.2 11.6Zm11.4-84s3.7-16.7 22.1-17c0 0-5.2 16.2-22 17Z"/>
  <path fill="#37474F" d="M86.5 65.2s7.4-8.8 18.5-3.3c0 0-8.1 8.1-18.5 3.3ZM56.2 108s11.5 1 13.3 13.3c0 0-11.3-2-13.3-13.3Z"/>
  <path fill="#37474F" d="M40.6 126.8s11.6-13.5 28.6-4.8c0 0-12.6 12.4-28.6 4.8Zm64.6-52.7s11 14-1 29c0 0-9.6-14.8 1-29Z"/>
  <path fill="#FFC727" d="M97 116.8a58 58 0 0 0-14.5 20.9l-.7 1.9v.1c9.8 22.7 11.8 37.2 11.8 47.3H85a110 110 0 0 0-7-41.6c-3.1-7-7.9-14.9-9-23.2l-.1-.3a33.7 33.7 0 0 1-.5-4.5c-.7-8.6.6-17.2 3.7-25.3 3.3-8.4 5.6-13.5 6.6-18.4l.1-.4c1.4-7.5-.4-14.8-7-33.1-.9-2.7 0-2.8 1.4-1a164 164 0 0 1 10.3 27.5s4.4-7.3 7.8-11c1.2-1.3 2.2-2.2 3-2.2 2.5-.2 2 .2.5 1.8l-.6.7a68.1 68.1 0 0 0-6.9 9.6c-9 15-13.5 33.6-14.4 43.7-1.4 18 6.2 25.8 6.2 25.8s8.8-13.4 14.6-19c5.7-5.5 9.5-14 6.5-21.4-.8-2-.5-2.7.2-2.4 1.4.6 4.4 5 3.8 10.8a14.8 14.8 0 0 1-2 6l-1 1.5s1.2-.3 3-.4c4-.4 10.9-.5 13 3l.2.3c2.6 4.6-9.3-6.7-20.4 3.3Z"/>
  <path fill="#000" d="M97 116.8a58 58 0 0 0-14.5 20.9l-.7 1.9v.1c9.8 22.7 11.8 37.2 11.8 47.3H85a110 110 0 0 0-7-41.6c-3.1-7-7.9-14.9-9-23.2l-.1-.3a33.7 33.7 0 0 1-.5-4.5c-.7-8.6.6-17.2 3.7-25.3 3.3-8.4 5.6-13.5 6.6-18.4l.1-.4c1.4-7.5-.4-14.8-7-33.1-.9-2.7 0-2.8 1.4-1a164 164 0 0 1 10.3 27.5s4.4-7.3 7.8-11c1.2-1.3 2.2-2.2 3-2.2 2.5-.2 2 .2.5 1.8l-.6.7a68.1 68.1 0 0 0-6.9 9.6c-9 15-13.5 33.6-14.4 43.7-1.4 18 6.2 25.8 6.2 25.8s8.8-13.4 14.6-19c5.7-5.5 9.5-14 6.5-21.4-.8-2-.5-2.7.2-2.4 1.4.6 4.4 5 3.8 10.8a14.8 14.8 0 0 1-2 6l-1 1.5s1.2-.3 3-.4c4-.4 10.9-.5 13 3l.2.3c2.6 4.6-9.3-6.7-20.4 3.3Z" opacity=".4"/>
  <path fill="#FFC727" d="M105 228H69.8a6.5 6.5 0 0 1-6.5-6.5v-39s5.3-1 7.2-1c2 0 6.9 1.5 8.9 1.5 5.9 0 10.4-1.5 13.2-1.5 3.4 0 8.5 1.7 12 1.7 1.6 0 6.9-.8 6.9-.8v39a6.4 6.4 0 0 1-6.5 6.5Z"/>
  <path fill="#000" d="M105 228H69.8a6.5 6.5 0 0 1-6.5-6.5v-39s5.3-1 7.2-1c2 0 6.9 1.5 8.9 1.5 5.9 0 10.4-1.5 13.2-1.5 3.4 0 8.5 1.7 12 1.7 1.6 0 6.9-.8 6.9-.8v39a6.4 6.4 0 0 1-6.5 6.5Z" opacity=".6"/>
  <path fill="#000" d="m99.9 221 .1.3a.4.4 0 0 0 .6.2l.2-.2.1-.3c.6-1.1-1.6-1.1-1 0Zm-29-9.8.1.3a.4.4 0 0 0 .4.2.4.4 0 0 0 .4-.2l.1-.3c.6-1.1-1.5-1.1-1 0Zm2.5 4a.7.7 0 1 0 0-1.4.7.7 0 0 0 0 1.5Zm32.8-26.3c.2 0 .4 0 .5-.2a.7.7 0 0 0 0-1 .7.7 0 1 0-.5 1.2ZM94 203.8a.7.7 0 1 0 0-1.5.7.7 0 0 0 0 1.5Zm-26.8-13.9a1 1 0 0 0 1.4 0 1.4 1.4 0 0 0 .4-1.3c-.2-1-2-1-2.2 0a1.4 1.4 0 0 0 .4 1.3Zm37.5 25.6a1 1 0 0 0 1.4 0 1.4 1.4 0 0 0 .4-1.4c-.2-1-2-1-2.2 0a1.4 1.4 0 0 0 .4 1.4Z" opacity=".3"/>
  <g opacity=".8">
    <path fill="#DBDBDB" d="M107.5 172.4H67.3a6 6 0 0 0-6 6.1v45.6a6 6 0 0 0 6 6.1h40.2a6 6 0 0 0 6-6v-45.7a6 6 0 0 0-6-6Zm-1.1-8h-38v8h38v-8Z" opacity=".8"/>
    <path fill="#C7C7C7" d="M107.7 166H67.1v.9h40.6v-1Zm0 2H67.1v1h40.6v-1Zm0 2H67.1v1h40.6v-1Zm-38.2 2.5 4.5-.1h4.4l9-.1h13.4l4.5.2h-4.5l-4.4.1H74l-4.5-.1Z" opacity=".8"/>
  </g>
  <path fill="#EBEBEB" d="M94 194.7H74v13.1h20v-13.1Z"/>
  <path fill="#fff" d="M86.8 200.9v4h-2.6v-2h-1.5v2H80v-4h6.8Zm1.2 0h-9.2l4.6-3.6 4.6 3.6Z"/>
  <path fill="#fff" d="m79.3 192.7-1 .5 1-.3.5.6-.5.4.6-.2.1.2-.5.4.6-.2.1.1-7.5 4.5-.3-.5.6-.4-.7.2-.2-.2.5-.3-.5.2-.1-.1.7-.6-.9.3-.2-.4 7.5-4.5.2.3Zm17 5.6-.8-.7.6.9-.4.5-.5-.2.3.4-.2.2-.5-.4.4.5-.1.2-6.6-5.6.5-.5.5.5-.4-.6.1-.2.5.3-.4-.4.1-.1.8.5-.6-.8.3-.3 6.6 5.5-.2.3Zm-7.5 11.4 1-.6-1 .4-.5-.7.4-.3-.5.2-.1-.3.5-.4-.6.3-.1-.2 7.5-4.5.3.6-.6.4.7-.3.1.2-.4.4.5-.2-.6.7.9-.3.2.4L89 210l-.2-.3Zm-17-5.6.8.6-.7-.8.5-.6.5.3-.3-.4.2-.3.5.4-.5-.5.2-.2 6.5 5.6-.4.5-.5-.4.4.5-.2.2-.4-.3.3.5-.8-.4.5.7-.3.4-6.5-5.6.2-.2Z" opacity=".4"/>
  <path fill="#263238" d="m20.8 230.2 26.9-.1h27l53.8-.2 53.9.1h27l26.8.2-26.9.1h-27l-53.8.2-53.9-.1h-27l-26.8-.2Z"/>
  <path fill="#455A64" d="M69.3 229.2c-10 4.8-20.1-2.3-30.2 2.5l2.7-9.1c8.2-2.4 16.4 1.7 24.6-.4l3 7Z"/>
  <path fill="#37474F" d="M58 226.9c.2 1.5-1.5 2.6-3.8 2.3-2.2-.2-4-1.6-3.9-3.1.1-1.5 1.8-2.6 3.8-2.4 2 .2 3.7 1.6 3.9 3.2Zm-10.2-1.1c0 .3-.6.6-1.1.6-.6 0-1-.2-1-.5a1.2 1.2 0 0 1 1.2-.7c.5 0 1 .2.9.6Zm14.8 1c0 .3-.3.6-1 .6-.5 0-1-.2-1-.6-.1-.4.3-.6.8-.6.6 0 1 .2 1.2.6Zm-20-4.5-2.5 9-1 .4 2.7-9.2.7-.2Zm26.7 7-.9.3a327 327 0 0 1-2.8-7.3l.8-.1 3 7Z"/>
  <path fill="#37474F" d="m69.1 228.8.2.4c-10 4.8-20.1-2.3-30.2 2.5l.2-.6c10-4.6 19.9 2.3 29.8-2.3Zm-2.7-6.7.2.5c-8.3 2.3-16.7-2-25 .5l.2-.5c8.2-2.4 16.4 1.7 24.6-.5Z"/>
  <path fill="#37474F" d="m42.2 230-2 .7.4-1.3c1-.3 1.8 0 1.6.7Zm25.6-1.8.4 1-2 .7c-.1-.7.6-1.3 1.6-1.7Zm-3.7-5 1.7-.4.4 1c-1 .3-1.9 0-2-.7Zm-22 .9.3-1.2c.5-.2 1.1-.3 1.7-.3-.2.6-1.1 1.3-2 1.5Z"/>
  <path fill="#455A64" d="m54.2 224.4.1.1v.2c.5 0 1 .2 1.4.5v.1l-.1.1h-.1a3 3 0 0 0-1.2-.5v1.4c1.2.3 1.7.6 1.8 1 0 .5-.7.8-1.7.7v.4l-.2.1-.2-.1v-.4c-.6-.1-1.2-.3-1.8-.7 0-.1 0-.2.2-.2.6.4 1 .6 1.6.7v-1.4c-1.1-.3-1.6-.6-1.6-1 0-.5.7-.8 1.6-.7v-.2l.2-.1Zm-.2 1.8v-1.3c-.7-.1-1.2.1-1.2.5s.2.5 1.2.8Zm.4.3v1.3c.8.1 1.3-.1 1.3-.5s-.3-.5-1.3-.8Zm28.8 7.6c-10.6 2.1-21.3-15.6-32-12.5 2-3.4 4.2-6.5 6.8-9.4 8.7 3.2 17.4 14.5 26 11.9l-.8 10Z"/>
  <path fill="#37474F" d="M73.2 226.7c-.6 1.5-3 1.5-5.4-.3-2.4-1.7-3.6-4-2.8-5.3.9-1.2 3.3-1 5.4.5 2 1.4 3.3 3.6 2.8 5.1Zm-10.8-7.5c-.2.3-.9.3-1.5 0-.6-.4-.9-.9-.6-1.2.2-.3.9-.3 1.5 0s.8 1 .6 1.2Zm15.7 9.6c0 .4-.7.5-1.3.3-.6-.2-1-.8-.9-1.2.1-.3.7-.4 1.3-.2.6.2 1 .7.9 1Zm-19.3-16.2a51.5 51.5 0 0 0-6.6 8.8l-1 .2c2-3.4 4.2-6.5 6.8-9.4l.8.4ZM83.2 234l-1 .2 1-10 .8-.2-.8 10Z"/>
  <path fill="#37474F" d="M83.3 233.5v.6c-10.7 2.1-21.4-15.6-32-12.5l.4-.7c10.5-2.6 21 14.8 31.6 12.6Zm.7-9.4v.6c-8.8 2.6-17.6-9-26.4-12l.4-.5c8.7 3.2 17.4 14.5 26 11.9Z"/>
  <path fill="#37474F" d="M54.8 220.7h-2.2l1-1.4c1 0 1.6.7 1.2 1.4Zm27.7 11.6-.2 1.3h-2c0-.7 1-1.2 2.2-1.3Zm-1-7.2 1.7-.1-.1 1.4c-1 .1-1.8-.5-1.7-1.3Zm-24-11 .9-1a5 5 0 0 1 1.7.7c-.4.5-1.6.5-2.6.2Z"/>
  <path fill="#455A64" d="m70.1 222.2.1.2v.2l1.2 1.2v.2h-.2l-.1-.1a5 5 0 0 0-1-1l-.7 1c1.2 1 1.6 1.7 1.4 2.1-.2.5-1 .3-2.2-.4l-.1.3h-.3c-.1-.1-.2-.2-.1-.3l.1-.3a6.9 6.9 0 0 1-1.6-1.8s-.1 0 0-.1h.2l.1.2a6 6 0 0 0 1.5 1.5l.6-1.2c-1.2-1-1.6-1.6-1.3-2 .3-.4 1.1-.2 2 .5l.2-.2h.2Zm-1 1.5.6-1.2c-.8-.5-1.4-.6-1.6-.3-.2.3 0 .6 1 1.5Zm.2.5-.6 1.1c.8.6 1.5.8 1.7.4.1-.3 0-.6-1-1.5h-.1Zm66.3-26.9c-13.2-5.9-26.3 10.7-39.5 4.8l3-9.7c10.8 2.1 21.5-8.3 32.2-7a377 377 0 0 1 4.3 12Z"/>
  <path fill="#37474F" d="M120.6 192.6c.3 2-1.9 4.3-4.8 5.6-3 1.2-5.4.4-5.3-1.7.1-2 2.3-4.4 4.8-5.5 2.6-1 5-.3 5.3 1.6Zm-13.4 4.7c0 .5-.7 1-1.4 1.1-.8.2-1.3-.1-1.3-.6s.7-1 1.5-1c.7-.2 1.3 0 1.2.5Zm19.4-6.5c0 .4-.4.9-1.2 1-.7.2-1.4 0-1.5-.5-.1-.4.4-1 1.1-1 .7-.2 1.4 0 1.6.5Zm-26.5 1.7-2.8 10.1-1.2-.5 3-9.7 1 .1Zm35.5 4.8-1.2-.4c-1.3-4.1-2.7-8-4-11.6h1a349 349 0 0 1 4.2 12Z"/>
  <path fill="#37474F" d="m135.4 196.5.2.8c-13.2-5.9-26.3 10.7-39.5 4.8l.2-.6c13 5.7 26-10.5 39-5Zm-4-11.1.2.7c-10.9-1.5-21.8 9.2-32.6 6.9l.2-.6c10.7 2.1 21.4-8.3 32.1-7Z"/>
  <path fill="#37474F" d="M100 202.6a15 15 0 0 1-2.5-.6l.4-1.4c1.4.4 2.4 1.2 2.2 2Zm33.6-8.2.6 1.7-2.6-.6c-.3-.8.6-1.5 2-1Zm-5.2-8.4h2.2l.6 1.5c-1.3-.1-2.5-.7-2.8-1.5Zm-28.8 8.6.4-1.4 2.1.1c-.1.9-1.3 1.5-2.5 1.3Z"/>
  <path fill="#455A64" d="M115.5 191.9h.2v.3l1.8-.3.1.1s0 .2-.2.3h-.2c-.5 0-1 0-1.5.2l.1 1.7c1.5-.4 2.2-.3 2.3.2 0 .6-.8 1.5-2.1 2v.5l-.3.3h-.2v-.5a5 5 0 0 1-2.4.3h-.1l.2-.3h.2a4 4 0 0 0 2-.3v-1.8c-1.6.4-2.2.3-2.2-.3s.9-1.4 2-2v-.2s.1-.2.3-.2Zm-.1 2.4-.1-1.7c-1 .4-1.6 1-1.6 1.5 0 .4.4.5 1.7.2Zm.4.2.1 1.7c1-.4 1.7-1 1.7-1.5s-.4-.6-1.8-.2Zm12.9 41.7c-11.4-11.6-22.8 2.6-34.2-9 2-1.2 4-3.2 6.1-5.8 9.3 3.2 18.6-4.4 27.9 4.8l.2 10Z"/>
  <path fill="#37474F" d="M117.4 226.5c-.4 1.8-2.8 3.3-5.4 3.7-2.6.3-4-1.1-3.3-3a7 7 0 0 1 5.3-3.9c2.3-.2 3.8 1.4 3.4 3.2Zm-11.5.6a1.6 1.6 0 0 1-1.6.7c-.6 0-1-.5-.7-.9a1.8 1.8 0 0 1 1.5-.6c.6 0 1 .4.8.8Zm16.7 0c0 .5-.6.6-1.2.5-.7-.2-1.2-.6-1-1 0-.4.5-.7 1.2-.5.6.2 1 .7 1 1Zm-21.1-5.4c-2 2.7-4 5-6 6.4l-1-1c2-1.1 4-3.1 6.1-5.7l.9.3Zm27.2 14.5-1-1v-9.8l.8.8.2 10Z"/>
  <path fill="#37474F" d="M128.6 235.6v.6c-11.4-11.6-22.7 2.6-34.1-9l.4-.3c11.2 11 22.5-2.8 33.7 8.7Zm-.1-9.4v.6c-9.4-9.4-18.8-1.3-28.2-4.9l.4-.5c9.2 3.2 18.5-4.4 27.8 4.8Z"/>
  <path fill="#37474F" d="m98.2 229.5-2.3-1.6.8-.8c1.2 1 1.9 1.8 1.5 2.4Zm29.4 3.7v1.4a17 17 0 0 0-2.2-1.7c0-.7 1-.8 2.2.3Zm-1.9-8.7 2 1.5v1.4c-1.1-1-2-2.1-2-2.9Zm-25.4-1.2.8-1.1 2 .4c-.5.7-1.7 1.1-2.8.7Z"/>
  <path fill="#455A64" d="M113.8 224.1c.1 0 .2 0 .2.2v.2c.4 0 .9 0 1.3.3 0 0 .1 0 0 .1a.3.3 0 0 1-.2.2h-.1c-.4-.3-.8-.4-1.2-.3l-.4 1.6c1.2 0 1.7.4 1.6 1-.2.5-1.1 1-2.3 1.2l-.1.5-.1.1h-.3v-.5c-.5 0-1.2 0-1.8-.4v-.1a.4.4 0 0 1 .3-.2h.1c.5.3 1 .4 1.6.4l.5-1.7c-1.2 0-1.7-.3-1.5-1 .2-.5 1.1-1 2.1-1.2l.1-.2a.3.3 0 0 1 .2-.2Zm-.8 2.3.5-1.6c-.9 0-1.5.5-1.6 1-.2.3 0 .5 1 .6Zm.3.3-.5 1.6c.9 0 1.6-.5 1.7-.9.1-.4-.1-.6-1.2-.7Z"/>
  <path fill="#fff" d="M197.2 38.3a12.2 12.2 0 0 1-19.4 9.7l-6 1.6 2.5-5.6a12.2 12.2 0 1 1 23-5.7Z"/>
  <path fill="#263238" d="M197.2 38.3A12.3 12.3 0 0 1 184 50.6c-2.3-.2-4.5-1-6.3-2.4h.1l-6 1.6-.4.1.2-.4 2.5-5.6v.2a12.3 12.3 0 1 1 23.1-5.8Zm0 0a12.2 12.2 0 0 0-9.7-11.9 12.2 12.2 0 0 0-13.4 7 12 12 0 0 0 .4 10.5v.2l-2.5 5.6-.2-.4 6-1.4a12 12 0 0 0 17.6-3.3c1.2-1.9 1.8-4 1.8-6.3Z"/>
  <path fill="#FFC727" d="M180.1 40.3h-2.5v3.6h2.5v-3.6Zm3.8-2h-2.6v5.6h2.6v-5.7Zm3.7-2.2h-2.5V44h2.5v-7.8Zm3.8-2h-2.6v9.8h2.6v-9.8Zm-13.8 5.5V38l12.5-5.7.3.5-12.8 7Z"/>
  <path fill="#FFC727" d="m190.4 33.3 1-1.5h-1.8l.8 1.5Z"/>
  <g fill="#fff" opacity=".7">
    <path d="M177.6 39.6V38l12.5-5.7.3.5-12.8 7Z" opacity=".7"/>
    <path d="m190.4 33.3 1-1.5h-1.8l.8 1.5Z" opacity=".7"/>
  </g>
</svg>
